<?xml version="1.0" encoding="UTF-8"?><svg xmlns="http://www.w3.org/2000/svg" xmlns:xlink="http://www.w3.org/1999/xlink" viewBox="0 0 64 64"><defs><style>.cls-1{stroke-dasharray:0 0 1.55 1.55;}.cls-1,.cls-2,.cls-3,.cls-4,.cls-5,.cls-6,.cls-7,.cls-8,.cls-9,.cls-10,.cls-11,.cls-12,.cls-13,.cls-14,.cls-15,.cls-16,.cls-17,.cls-18,.cls-19,.cls-20,.cls-21,.cls-22,.cls-23,.cls-24,.cls-25,.cls-26,.cls-27,.cls-28,.cls-29{stroke-linejoin:round;}.cls-1,.cls-2,.cls-3,.cls-4,.cls-5,.cls-6,.cls-7,.cls-9,.cls-10,.cls-11,.cls-12,.cls-14,.cls-15,.cls-16,.cls-17,.cls-18,.cls-19,.cls-21,.cls-22,.cls-23,.cls-26,.cls-27,.cls-28,.cls-29{stroke-linecap:round;}.cls-1,.cls-2,.cls-4,.cls-5,.cls-6,.cls-7,.cls-8,.cls-12,.cls-13,.cls-14,.cls-15,.cls-18,.cls-20,.cls-21,.cls-24,.cls-25,.cls-27{fill:none;}.cls-1,.cls-2,.cls-4,.cls-6,.cls-8,.cls-9,.cls-10,.cls-12,.cls-13,.cls-14,.cls-15,.cls-16,.cls-18,.cls-20,.cls-21,.cls-22,.cls-24,.cls-25,.cls-26,.cls-29{stroke:#00415f;}.cls-1,.cls-4,.cls-10,.cls-12,.cls-14,.cls-15,.cls-18,.cls-26,.cls-29{stroke-width:.5px;}.cls-2,.cls-6,.cls-8,.cls-9,.cls-13,.cls-16,.cls-20,.cls-21,.cls-22,.cls-24,.cls-25{stroke-width:.75px;}.cls-2,.cls-13{stroke-dasharray:0 0 1.81 1.81;}.cls-30,.cls-3,.cls-31,.cls-32,.cls-33{opacity:.5;}.cls-30,.cls-9{fill:#aadcfa;}.cls-3{fill:url(#linear-gradient-2);}.cls-3,.cls-5,.cls-11,.cls-17,.cls-19,.cls-23,.cls-28{stroke:#6d6d6d;}.cls-3,.cls-5,.cls-27{stroke-dasharray:0 0 2 2;}.cls-34{fill:url(#linear-gradient-11);fill-opacity:.25;}.cls-4{stroke-dasharray:0 0 1.63 1.63;}.cls-31{fill:url(#linear-gradient-6);}.cls-5,.cls-7,.cls-11,.cls-17,.cls-19,.cls-23,.cls-27,.cls-28{stroke-width:.99px;}.cls-6{stroke-dasharray:0 0 1.77 1.77;}.cls-7,.cls-27{stroke:#2d2d2d;}.cls-8{stroke-dasharray:0 0 1.57 1.57;}.cls-32,.cls-22,.cls-26{fill:#82bddb;}.cls-10,.cls-16,.cls-33{fill:#5a9ab8;}.cls-11{fill:url(#linear-gradient-7);}.cls-14{stroke-dasharray:0 0 1.57 1.57;}.cls-15{stroke-dasharray:0 0 1.69 1.69;}.cls-17{fill:url(#linear-gradient-9);}.cls-18{stroke-dasharray:0 0 1.69 1.69;}.cls-19{fill:url(#linear-gradient);}.cls-20{stroke-dasharray:0 0 1.62 1.62;}.cls-23{fill:url(#linear-gradient-8);}.cls-25{stroke-dasharray:0 0 1.82 1.82;}.cls-35{fill:url(#linear-gradient-3);opacity:.25;}.cls-28{fill:url(#linear-gradient-10);}.cls-29{fill:url(#linear-gradient-5);}.cls-36{fill:url(#linear-gradient-4);}</style><linearGradient id="linear-gradient" x1="63.73" y1="15.2" x2="31.37" y2="40.04" gradientUnits="userSpaceOnUse"><stop offset="0" stop-color="#fcfcfc"/><stop offset="1" stop-color="#b3b3b3"/></linearGradient><linearGradient id="linear-gradient-2" x1="49.82" y1="19.08" x2="16.59" y2="44.59" xlink:href="#linear-gradient"/><linearGradient id="linear-gradient-3" x1="49.07" y1="-15.08" x2="15.01" y2="39.24" gradientUnits="userSpaceOnUse"><stop offset="0" stop-color="#c9c9c9"/><stop offset="1" stop-color="#737373"/></linearGradient><linearGradient id="linear-gradient-4" x1="40.86" y1="31.32" x2="70.04" y2="31.32" gradientUnits="userSpaceOnUse"><stop offset="0" stop-color="#787878"/><stop offset="1" stop-color="#fcfcfc"/></linearGradient><linearGradient id="linear-gradient-5" x1="30.11" y1="29.81" x2="39.9" y2="29.81" gradientUnits="userSpaceOnUse"><stop offset=".1" stop-color="#195a72"/><stop offset=".5" stop-color="#5a9cb5"/><stop offset="1" stop-color="#93d2f0"/></linearGradient><linearGradient id="linear-gradient-6" x1="10.3" y1="31.89" x2="22.52" y2="31.89" xlink:href="#linear-gradient-5"/><linearGradient id="linear-gradient-7" x1="44.89" y1="19.91" x2="30.2" y2="32.48" xlink:href="#linear-gradient"/><linearGradient id="linear-gradient-8" x1="38.98" y1="29.03" x2="42.18" y2="29.03" xlink:href="#linear-gradient-3"/><linearGradient id="linear-gradient-9" x1="35.37" y1="21.5" x2="22.51" y2="33.42" xlink:href="#linear-gradient"/><linearGradient id="linear-gradient-10" x1="29.45" y1="31.71" x2="31.7" y2="31.71" xlink:href="#linear-gradient-3"/><linearGradient id="linear-gradient-11" x1="25.01" y1="24.75" x2="8.45" y2="37.31" xlink:href="#linear-gradient"/></defs><g id="Layer_4"><polyline class="cls-19" points="37.5 42.5 51.7 37.97 37.59 27.63 25.86 30.74"/></g><g id="Layer_9"><polyline class="cls-3" points="25.86 30.74 11.5 34.54 20.5 47.5 37.5 42.5"/></g><g id="Layer_10"><polygon class="cls-35" points="11.5 25.5 11.5 34.54 33.92 28.44 20.5 19.5 11.5 25.5"/></g><g id="Layer_11"><polygon class="cls-36" points="51.7 24.67 51.7 37.97 36.07 26.44 51.7 24.67"/></g><g id="Layer_12"><polygon class="cls-16" points="46.58 34.32 46.58 37.28 37.51 40.06 37.51 36.75 46.58 34.32"/><polygon class="cls-9" points="34.61 34.64 37.51 36.75 46.58 34.32 43.33 32.43 34.61 34.64"/><polygon class="cls-22" points="34.61 34.64 34.63 37.57 37.51 40.06 37.51 36.75 34.61 34.64"/></g><g id="Layer_13"><polygon class="cls-32" points="21.73 44.65 21.73 41.24 19.33 38.78 19.33 41.6 21.73 44.65"/><polyline class="cls-24" points="21.11 43.87 21.73 44.65 21.73 43.65"/><polyline class="cls-20" points="21.73 42.04 21.73 41.24 20.59 40.08"/><polyline class="cls-24" points="20.03 39.5 19.33 38.78 19.33 39.78"/><polyline class="cls-8" points="19.33 41.35 19.33 41.6 20.63 43.25"/><polygon class="cls-33" points="32.39 38.36 21.73 41.24 21.73 44.65 32.39 41.53 32.39 38.36"/><polyline class="cls-24" points="32.39 39.36 32.39 38.36 31.43 38.62"/><line class="cls-13" x1="29.68" y1="39.1" x2="23.57" y2="40.75"/><polyline class="cls-24" points="22.7 40.98 21.73 41.24 21.73 42.24"/><polyline class="cls-24" points="21.73 43.65 21.73 44.65 22.69 44.37"/><line class="cls-25" x1="24.44" y1="43.86" x2="30.56" y2="42.07"/><polyline class="cls-24" points="31.43 41.82 32.39 41.53 32.39 40.53"/><polygon class="cls-30" points="29.86 36.16 19.33 38.78 21.73 41.24 32.39 38.36 29.86 36.16"/><polyline class="cls-21" points="30.62 36.82 29.86 36.16 28.89 36.4"/><line class="cls-6" x1="27.17" y1="36.83" x2="21.16" y2="38.33"/><polyline class="cls-21" points="20.3 38.54 19.33 38.78 20.03 39.5"/><polyline class="cls-21" points="21.03 40.53 21.73 41.24 22.7 40.98"/><line class="cls-2" x1="24.44" y1="40.51" x2="30.55" y2="38.86"/><polyline class="cls-21" points="31.43 38.62 32.39 38.36 31.64 37.71"/></g><g id="Layer_14"><polygon class="cls-10" points="32.3 33.71 39.9 31.55 39.9 29.71 32.22 31.62 32.3 33.71"/><polygon class="cls-26" points="30.11 29.44 32.22 31.5 32.22 33.71 30.11 31.27 30.11 29.44"/><polygon class="cls-29" points="37.41 28.01 39.9 29.71 32.22 31.62 30.11 29.44 37.41 28.01"/></g><g id="Layer_15"><polygon class="cls-32" points="16.82 37.73 14.71 35.01 14.67 31.8 16.82 34.45 16.82 37.73"/><polyline class="cls-12" points="16.82 36.73 16.82 37.73 16.21 36.94"/><polyline class="cls-1" points="15.26 35.71 14.71 35.01 14.69 33.57"/><polyline class="cls-12" points="14.68 32.8 14.67 31.8 15.3 32.57"/><polyline class="cls-14" points="16.28 33.79 16.82 34.45 16.82 35.95"/><polygon class="cls-33" points="26.9 31.64 26.9 34.92 16.82 37.73 16.82 34.45 26.9 31.64"/><polyline class="cls-12" points="25.93 31.91 26.9 31.64 26.9 32.64"/><polyline class="cls-12" points="26.9 33.92 26.9 34.92 25.93 35.19"/><line class="cls-18" x1="24.3" y1="35.64" x2="18.6" y2="37.24"/><polyline class="cls-12" points="17.78 37.46 16.82 37.73 16.82 36.73"/><polyline class="cls-12" points="16.82 35.45 16.82 34.45 17.78 34.18"/><line class="cls-15" x1="19.41" y1="33.73" x2="25.12" y2="32.13"/><polygon class="cls-31" points="14.67 31.8 16.82 34.45 26.9 31.64 24.5 29.33 14.67 31.8"/><polyline class="cls-12" points="15.64 31.55 14.67 31.8 15.3 32.57"/><polyline class="cls-12" points="16.19 33.67 16.82 34.45 17.78 34.18"/><line class="cls-15" x1="19.41" y1="33.73" x2="25.12" y2="32.13"/><polyline class="cls-12" points="25.93 31.91 26.9 31.64 26.18 30.94"/><polyline class="cls-12" points="25.22 30.03 24.5 29.33 23.53 29.58"/><line class="cls-4" x1="21.95" y1="29.97" x2="16.43" y2="31.35"/></g><g id="Layer_16"><polygon class="cls-11" points="32.52 19.91 38.12 16.23 51.7 24.67 42.18 31.32 32.52 19.91"/></g><g id="Layer_17"><polygon class="cls-23" points="41.67 26.73 42.18 31.32 38.98 28.51 41.67 26.73"/></g><g id="Layer_18"><polygon class="cls-17" points="31.7 33.89 41.67 26.73 29.69 17.91 23.02 21.88 31.7 33.89"/></g><g id="Layer_19"><polygon class="cls-28" points="31.24 29.52 31.7 33.89 29.45 30.74 31.24 29.52"/></g><g id="Layer_20"><polygon class="cls-34" points="20.36 36.86 31.24 29.52 20.5 19.5 18.59 20.77 11.5 25.5 20.36 36.86"/><polyline class="cls-5" points="11.5 25.5 20.36 36.86 31.24 29.52 20.5 19.5"/></g><g id="Layer_8"><polyline class="cls-7" points="23.02 21.88 29.69 17.91 32.52 19.91 32.52 19.91 38.12 16.23 51.7 24.67 51.7 37.97 37.16 42.6"/><line class="cls-7" x1="23.02" y1="21.88" x2="20.67" y2="19.66"/></g><g id="Layer_21"><polyline class="cls-27" points="35.24 43.16 20.5 47.5 11.5 34.54 11.5 25.5 17.28 21.65 20.5 19.5 23.14 22"/></g></svg>