<?xml version="1.0" encoding="UTF-8"?><svg xmlns="http://www.w3.org/2000/svg" xmlns:xlink="http://www.w3.org/1999/xlink" viewBox="0 0 64 64"><defs><linearGradient id="linear-gradient" x1="35" y1="28.94" x2="53" y2="60.1" gradientUnits="userSpaceOnUse"><stop offset="0" stop-color="#fff"/><stop offset="1" stop-color="#d4d5d3"/></linearGradient><linearGradient id="linear-gradient-2" x1="76.51" y1="76.52" x2="12.47" y2="27.37" gradientTransform="translate(0 66) scale(1 -1)" gradientUnits="userSpaceOnUse"><stop offset="0" stop-color="#fcfcfc"/><stop offset="1" stop-color="#b3b3b3"/></linearGradient><linearGradient id="linear-gradient-3" x1="22.88" y1="63.24" x2="7.6" y2="38.87" gradientTransform="translate(0 66) scale(1 -1)" gradientUnits="userSpaceOnUse"><stop offset="0" stop-color="#c9c9c9"/><stop offset="1" stop-color="#737373"/></linearGradient><linearGradient id="linear-gradient-4" x1="37.16" y1="43.68" x2="66.34" y2="43.68" gradientTransform="translate(0 66) scale(1 -1)" gradientUnits="userSpaceOnUse"><stop offset="0" stop-color="#787878"/><stop offset="1" stop-color="#fcfcfc"/></linearGradient><linearGradient id="linear-gradient-5" x1="26.11" y1="45.18" x2="35.9" y2="45.18" gradientTransform="translate(0 66) scale(1 -1)" gradientUnits="userSpaceOnUse"><stop offset=".1" stop-color="#195a72"/><stop offset=".5" stop-color="#5a9cb5"/><stop offset="1" stop-color="#93d2f0"/></linearGradient><linearGradient id="linear-gradient-6" x1="6.07" y1="42.67" x2="18.47" y2="42.67" xlink:href="#linear-gradient-5"/><linearGradient id="linear-gradient-7" x1="41.15" y1="55.3" x2="25.3" y2="41.73" xlink:href="#linear-gradient-2"/><linearGradient id="linear-gradient-8" x1="35.62" y1="46.18" x2="38.5" y2="46.18" xlink:href="#linear-gradient-3"/><linearGradient id="linear-gradient-9" x1="32" y1="53.88" x2="17.81" y2="40.73" xlink:href="#linear-gradient-2"/><linearGradient id="linear-gradient-10" x1="24.74" y1="43.34" x2="27.5" y2="43.34" xlink:href="#linear-gradient-3"/><linearGradient id="linear-gradient-11" x1="21.54" y1="50.52" x2="2.83" y2="36.33" xlink:href="#linear-gradient-2"/><linearGradient id="linear-gradient-12" x1="31.73" y1="37.1" x2="40.27" y2="51.9" gradientUnits="userSpaceOnUse"><stop offset="0" stop-color="#8cd7f5"/><stop offset="1" stop-color="#376e8c"/></linearGradient><linearGradient id="linear-gradient-13" x1="34.44" y1="43.8" x2="37.56" y2="49.2" gradientUnits="userSpaceOnUse"><stop offset="0" stop-color="#aaa"/><stop offset="1" stop-color="#5a5a5a"/></linearGradient><linearGradient id="linear-gradient-14" x1="39.73" x2="48.27" xlink:href="#linear-gradient-12"/><linearGradient id="linear-gradient-15" x1="42.44" y1="36.8" x2="45.56" y2="42.2" xlink:href="#linear-gradient-13"/><linearGradient id="linear-gradient-16" x1="47.73" x2="56.27" xlink:href="#linear-gradient-12"/><linearGradient id="linear-gradient-17" x1="50.44" y1="46.8" x2="53.56" y2="52.2" xlink:href="#linear-gradient-13"/></defs><g id="Layer_1"><g id="Usine_ok_2"><path d="M16.18,38.92c-.16,0-.31-.08-.41-.21L6.77,25.76c-.09-.13-.11-.3-.06-.45,.05-.14,.15-.25,.29-.31l26.43-7h.13c.1,0,.21,.04,.29,.1l14.15,10.32c.22,.18,.26,.5,.08,.72-.06,.08-.14,.13-.23,.16l-31.53,9.6-.14,.02Z" fill="url(#linear-gradient-2)"/><path d="M33.59,18.63l14.11,10.37-31.52,9.6L7.18,25.66l26.43-7m0-1c-.09,0-.17,0-.26,0L6.92,24.66c-.53,.15-.85,.7-.7,1.23,.03,.11,.08,.21,.14,.3l9,12.94c.19,.26,.49,.42,.81,.42,.1,.01,.19,.01,.29,0l31.54-9.63c.36-.11,.62-.41,.69-.78,.08-.38-.08-.77-.39-1l-14.13-10.31c-.17-.12-.37-.19-.58-.19l.02,.02Z" fill="#6d6d6d"/><polygon points="7 16.7 7 25.63 17.4 22.88 7 16.7" fill="url(#linear-gradient-3)"/><polygon points="48 15.67 48 28.97 32.37 17.44 48 15.67" fill="url(#linear-gradient-4)"/><polygon points="43.5 24.79 43.5 27.73 32.5 30.55 32.5 27.26 43.5 24.79" fill="#5a9ab8" stroke="#00415f" stroke-linecap="round" stroke-linejoin="round" stroke-width=".75"/><polygon points="30.5 25.55 32.5 27.26 43.5 24.79 41.54 23.21 30.5 25.55" fill="#aadcfa" stroke="#00415f" stroke-linecap="round" stroke-linejoin="round" stroke-width=".75"/><polygon points="30.5 25.55 30.52 28.58 32.5 30.55 32.5 27.26 30.5 25.55" fill="#82bddb" stroke="#00415f" stroke-linecap="round" stroke-linejoin="round" stroke-width=".75"/><polygon points="28.5 29 17.5 31.84 17.5 35.5 28.5 32.28 28.5 29" fill="#5a9ab8" stroke="#00415f" stroke-linejoin="round" stroke-width=".75"/><polygon points="26.11 27.21 15.5 29.78 17.5 31.84 28.5 29 26.11 27.21" fill="#aadcfa" stroke="#00415f" stroke-linecap="round" stroke-linejoin="round" stroke-width=".75"/><polygon points="17.5 35.5 17.5 31.84 15.5 29.78 15.5 32.6 17.5 35.5" fill="#82bddb" stroke="#00415f" stroke-linejoin="round" stroke-width=".75"/><polygon points="27.5 24.79 35.5 22.55 35.5 20.71 27.44 22.57 27.5 24.79" fill="#5a9ab8" stroke="#00415f" stroke-linecap="round" stroke-linejoin="round" stroke-width=".5"/><polygon points="26.5 20.55 28.5 22.5 28.5 24.6 26.5 22.29 26.5 20.55" fill="#82bddb" stroke="#00415f" stroke-linecap="round" stroke-linejoin="round" stroke-width=".5"/><polygon points="33.41 19.01 35.9 20.71 28.22 22.62 26.11 20.44 33.41 19.01" fill="url(#linear-gradient-5)" stroke="#00415f" stroke-linecap="round" stroke-linejoin="round" stroke-width=".5"/><polygon points="22.5 22.66 22.5 25.92 12.5 28.71 12.5 25.45 22.5 22.66" fill="#5a9ab8" stroke="#00415f" stroke-linecap="round" stroke-linejoin="round" stroke-width=".5"/><polygon points="10.5 22.95 12.5 25.45 22.9 22.64 21.51 21.2 10.5 22.95" fill="url(#linear-gradient-6)" stroke="#00415f" stroke-linecap="round" stroke-linejoin="round" stroke-width=".5"/><polygon points="12.5 28.71 10.5 26 10.5 22.95 12.5 25.47 12.5 28.71" fill="#82bddb" stroke="#00415f" stroke-linecap="round" stroke-linejoin="round" stroke-width=".5"/><path d="M38.14,22.42c-.14,0-.28-.06-.37-.17l-9.63-11c-.09-.11-.14-.26-.12-.4,.02-.14,.1-.26,.22-.34l5.61-3.69c.08-.05,.17-.08,.27-.08,.09,0,.18,.03,.26,.08l13.62,8.43c.14,.09,.23,.24,.23,.41,0,.17-.08,.33-.22,.42l-9.57,6.26c-.09,.06-.19,.09-.3,.08Z" fill="url(#linear-gradient-7)"/><path d="M34.12,7.23l13.58,8.44-9.56,6.26-9.62-11,5.6-3.68m-.12-1c-.2,0-.39,.05-.55,.16l-5.57,3.67c-.46,.31-.58,.93-.27,1.39,.02,.03,.04,.06,.07,.09l9.62,11c.19,.22,.46,.34,.75,.34,.19,0,.38-.06,.54-.16l9.57-6.27c.46-.31,.58-.93,.27-1.39-.07-.11-.16-.2-.27-.27l-13.64-8.42c-.16-.1-.34-.15-.52-.15h0Z" fill="#6d6d6d"/><polygon points="38.5 17.72 38.5 21.93 35.62 19.75 38.5 17.72" fill="url(#linear-gradient-8)" stroke="#6d6d6d" stroke-linecap="round" stroke-linejoin="round" stroke-width=".99"/><path d="M27.7,25.29c-.16,0-.31-.08-.4-.21l-8.68-11.91c-.16-.22-.12-.52,.1-.69,.02-.01,.03-.02,.05-.03l6.67-4c.08-.05,.16-.07,.25-.07,.1,0,.2,.03,.29,.09l12.45,8.82c.13,.1,.21,.25,.21,.41,0,.16-.09,.31-.22,.4l-10.42,7.1c-.09,.06-.19,.1-.3,.09Z" fill="url(#linear-gradient-9)"/><path d="M25.69,8.91l12.45,8.82-10.44,7.06-8.7-11.91,6.67-4m0-1c-.18,0-.35,.05-.5,.14l-6.68,4c-.24,.14-.4,.38-.46,.65-.05,.27,0,.55,.17,.78l8.7,11.92c.19,.26,.48,.41,.8,.41,.2,0,.39-.06,.56-.17l10.43-7.06c.45-.32,.55-.95,.22-1.4-.06-.09-.14-.16-.22-.22l-12.42-8.82c-.17-.12-.37-.19-.58-.19l-.02-.04Z" fill="#6d6d6d"/><polygon points="27.5 20.52 27.5 24.79 24.73 22.27 27.5 20.52" fill="url(#linear-gradient-10)" stroke="#6d6d6d" stroke-linecap="round" stroke-linejoin="round" stroke-width=".99"/><path d="M16.36,28.36c-.15,0-.29-.07-.39-.18L6.78,17c-.09-.11-.13-.26-.11-.4,.02-.14,.1-.26,.22-.33l9.35-6c.08-.05,.17-.08,.27-.08,.12,0,.24,.04,.33,.13l11.16,9.83c.12,.1,.18,.25,.17,.41-.02,.15-.1,.29-.23,.38l-11.31,7.34c-.08,.05-.17,.08-.27,.08Z" fill="url(#linear-gradient-11)"/><path d="M16.51,10.65l11.19,9.87-11.34,7.34L7.16,16.66l9.35-6m0-1c-.19,0-.38,.05-.54,.15L6.62,15.81c-.24,.15-.4,.4-.44,.68-.04,.28,.04,.56,.22,.78l9.19,11.2c.32,.39,.89,.47,1.31,.2l11.34-7.34c.46-.31,.58-.93,.28-1.39-.04-.07-.1-.13-.16-.18l-11.19-9.86c-.18-.16-.42-.24-.66-.24Z" fill="#6d6d6d"/><path d="M34.26,7.04l13.74,8.54v13.49l-31.89,9.69L7,25.66v-9.11l9.46-6.07,2.5,2.28,6.75-4.05,2.86,2.02,5.67-3.72m.01-.99c-.2,0-.39,.05-.56,.16l-5.05,3.34-2.31-1.59c-.33-.21-.75-.21-1.08,0l-6.11,3.64-2.02-1.77c-.18-.16-.42-.25-.67-.25-.19,0-.38,.05-.55,.15L6.45,15.78c-.28,.19-.45,.5-.45,.84v9.09c0,.2,.06,.4,.17,.58l9.09,13.13c.19,.26,.49,.42,.82,.42,.1,.01,.2,.01,.29,0l31.92-9.85c.44-.14,.73-.55,.71-1.01V15.59c0-.34-.18-.66-.46-.85l-13.74-8.53c-.16-.1-.34-.15-.53-.15l-.02-.04Z" fill="#2d2d2d"/></g></g><g id="Layer_3"><rect x="30.5" y="31.54" width="27" height="25.96" fill="#fff" opacity=".5" stroke="#fff" stroke-linejoin="round" stroke-width="3"/><rect x="30.5" y="31.54" width="27" height="25.96" fill="url(#linear-gradient)" stroke="#323232" stroke-linejoin="round"/><rect x="34.5" y="35.5" width="3" height="18" fill="url(#linear-gradient-12)" stroke="#003755" stroke-linejoin="round"/><rect x="32.5" y="44.5" width="7" height="4" rx="1" ry="1" fill="url(#linear-gradient-13)" stroke="#323232" stroke-linejoin="round"/><rect x="42.5" y="35.5" width="3" height="18" fill="url(#linear-gradient-14)" stroke="#003755" stroke-linejoin="round"/><rect x="40.5" y="37.5" width="7" height="4" rx="1" ry="1" fill="url(#linear-gradient-15)" stroke="#323232" stroke-linejoin="round"/><rect x="50.5" y="35.5" width="3" height="18" fill="url(#linear-gradient-16)" stroke="#003755" stroke-linejoin="round"/><rect x="48.5" y="47.5" width="7" height="4" rx="1" ry="1" fill="url(#linear-gradient-17)" stroke="#323232" stroke-linejoin="round"/></g></svg>