<?xml version="1.0" encoding="UTF-8"?>
<svg id="ICONES" xmlns="http://www.w3.org/2000/svg" xmlns:xlink="http://www.w3.org/1999/xlink" viewBox="0 0 64 64">
  <defs>
    <style>
      .cls-1 {
        fill: url(#Dégradé_sans_nom_3-2);
      }

      .cls-1, .cls-2, .cls-3, .cls-4, .cls-5, .cls-6, .cls-7, .cls-8, .cls-9, .cls-10, .cls-11, .cls-12 {
        stroke-linejoin: round;
      }

      .cls-1, .cls-5, .cls-11 {
        stroke: #063755;
      }

      .cls-13 {
        fill: url(#linear-gradient-12);
      }

      .cls-13, .cls-14, .cls-15, .cls-16, .cls-17, .cls-18, .cls-19, .cls-20, .cls-21, .cls-22, .cls-23, .cls-24, .cls-25, .cls-26, .cls-27, .cls-28, .cls-29, .cls-30, .cls-31, .cls-32, .cls-33, .cls-34, .cls-35, .cls-36, .cls-37 {
        stroke-width: 0px;
      }

      .cls-14 {
        fill: url(#linear-gradient-17);
      }

      .cls-2 {
        fill: url(#linear-gradient-11);
      }

      .cls-2, .cls-6, .cls-7, .cls-8 {
        stroke: #797a7a;
      }

      .cls-15 {
        fill: url(#linear-gradient-19);
      }

      .cls-16 {
        fill: url(#linear-gradient);
      }

      .cls-17 {
        fill: #01425f;
      }

      .cls-18 {
        fill: url(#linear-gradient-21);
      }

      .cls-19 {
        fill: url(#linear-gradient-6);
      }

      .cls-3 {
        stroke: #333232;
      }

      .cls-3, .cls-38, .cls-39, .cls-8, .cls-40 {
        fill: none;
      }

      .cls-20 {
        fill: #7bbdd5;
      }

      .cls-21 {
        fill: url(#linear-gradient-5);
      }

      .cls-22 {
        fill: #939393;
      }

      .cls-38, .cls-39, .cls-40 {
        stroke-miterlimit: 10;
      }

      .cls-38, .cls-9, .cls-10, .cls-12 {
        stroke: #797979;
      }

      .cls-23 {
        fill: url(#linear-gradient-13);
      }

      .cls-24 {
        fill: url(#linear-gradient-23);
      }

      .cls-25 {
        fill: url(#linear-gradient-25);
      }

      .cls-39 {
        stroke: #fff;
      }

      .cls-26 {
        fill: url(#linear-gradient-16);
      }

      .cls-27 {
        fill: url(#linear-gradient-22);
      }

      .cls-28 {
        fill: url(#linear-gradient-20);
      }

      .cls-29 {
        fill: url(#linear-gradient-14);
      }

      .cls-4 {
        fill: url(#linear-gradient-26);
        stroke: #2d2e2d;
      }

      .cls-4, .cls-9, .cls-10, .cls-12 {
        stroke-linecap: round;
      }

      .cls-30 {
        fill: #797979;
      }

      .cls-5 {
        fill: url(#Dégradé_sans_nom_3-3);
      }

      .cls-31 {
        fill: url(#linear-gradient-3);
      }

      .cls-6 {
        fill: url(#linear-gradient-8);
      }

      .cls-32 {
        fill: #2d2e2d;
      }

      .cls-33 {
        fill: url(#linear-gradient-9);
      }

      .cls-34 {
        fill: url(#linear-gradient-24);
      }

      .cls-7 {
        fill: url(#linear-gradient-7);
      }

      .cls-35 {
        fill: url(#linear-gradient-18);
      }

      .cls-40 {
        stroke: #01425f;
      }

      .cls-9 {
        fill: url(#radial-gradient);
      }

      .cls-10 {
        fill: url(#linear-gradient-2);
      }

      .cls-36 {
        fill: url(#linear-gradient-10);
      }

      .cls-37 {
        fill: url(#linear-gradient-4);
      }

      .cls-11 {
        fill: url(#Dégradé_sans_nom_3);
      }

      .cls-12 {
        fill: url(#linear-gradient-15);
      }
    </style>
    <linearGradient id="linear-gradient" x1="61.05" y1="555.81" x2="46.36" y2="548.46" gradientTransform="translate(0 586.47) scale(1 -1)" gradientUnits="userSpaceOnUse">
      <stop offset="0" stop-color="#c9c9c9"/>
      <stop offset="1" stop-color="#747474"/>
    </linearGradient>
    <linearGradient id="linear-gradient-2" x1="48.69" y1="560.52" x2="57.07" y2="560.52" gradientTransform="translate(0 586.47) scale(1 -1)" gradientUnits="userSpaceOnUse">
      <stop offset="0" stop-color="#f1f0f0"/>
      <stop offset="1" stop-color="#b4b4b4"/>
    </linearGradient>
    <linearGradient id="linear-gradient-3" x1="57.76" y1="557.07" x2="18.45" y2="526.22" xlink:href="#linear-gradient-2"/>
    <linearGradient id="linear-gradient-4" x1="49.26" y1="558.02" x2="60.4" y2="568.48" gradientTransform="translate(0 586.47) scale(1 -1)" gradientUnits="userSpaceOnUse">
      <stop offset="0" stop-color="#3e7f96"/>
      <stop offset=".67" stop-color="#75b7d0"/>
      <stop offset="1" stop-color="#94d4ec"/>
    </linearGradient>
    <linearGradient id="linear-gradient-5" x1="50.08" y1="584.58" x2="9.84" y2="548.77" xlink:href="#linear-gradient"/>
    <linearGradient id="linear-gradient-6" x1="23.8" y1="558.78" x2="-10.42" y2="532.43" xlink:href="#linear-gradient"/>
    <linearGradient id="linear-gradient-7" x1="10.02" y1="552.49" x2="19.8" y2="535.56" gradientTransform="translate(0 586.47) scale(1 -1)" gradientUnits="userSpaceOnUse">
      <stop offset="0" stop-color="#fff"/>
      <stop offset="1" stop-color="#d3d3d3"/>
    </linearGradient>
    <linearGradient id="linear-gradient-8" x1="9.42" y1="561.88" x2="15.4" y2="551.53" gradientTransform="translate(0 586.47) scale(1 -1)" gradientUnits="userSpaceOnUse">
      <stop offset="0" stop-color="#fff"/>
      <stop offset="1" stop-color="#f2f0f0"/>
    </linearGradient>
    <linearGradient id="linear-gradient-9" x1="33.2" y1="574.99" x2="-36.41" y2="529.08" gradientTransform="translate(0 586.47) scale(1 -1)" gradientUnits="userSpaceOnUse">
      <stop offset="0" stop-color="#f7f8f8"/>
      <stop offset="1" stop-color="#747474"/>
    </linearGradient>
    <linearGradient id="linear-gradient-10" x1="15.75" y1="571.35" x2="23.01" y2="571.35" xlink:href="#linear-gradient-2"/>
    <linearGradient id="linear-gradient-11" x1="27.32" y1="565.87" x2="42.54" y2="539.5" xlink:href="#linear-gradient-7"/>
    <linearGradient id="linear-gradient-12" x1="15.75" y1="572.32" x2="22.87" y2="572.32" xlink:href="#linear-gradient-2"/>
    <linearGradient id="linear-gradient-13" x1="8.49" y1="557.41" x2="16.27" y2="557.41" xlink:href="#linear-gradient-2"/>
    <linearGradient id="linear-gradient-14" x1="24.6" y1="552.67" x2="44.88" y2="552.67" gradientTransform="translate(0 586.47) scale(1 -1)" gradientUnits="userSpaceOnUse">
      <stop offset="0" stop-color="#858585"/>
      <stop offset=".3" stop-color="#838384"/>
      <stop offset=".4" stop-color="#7d7d7d"/>
      <stop offset=".48" stop-color="#727272"/>
      <stop offset=".52" stop-color="#676767"/>
    </linearGradient>
    <linearGradient id="linear-gradient-15" x1="25.53" y1="550.23" x2="45.41" y2="550.23" xlink:href="#linear-gradient-2"/>
    <linearGradient id="linear-gradient-16" x1="58.07" y1="572.35" x2="38.08" y2="553.35" xlink:href="#linear-gradient-2"/>
    <linearGradient id="linear-gradient-17" x1="94.2" y1="576.13" x2="26.07" y2="538.42" xlink:href="#linear-gradient-2"/>
    <linearGradient id="linear-gradient-18" x1="58.7" y1="578.57" x2="50.25" y2="563.98" xlink:href="#linear-gradient"/>
    <linearGradient id="linear-gradient-19" x1="24.28" y1="536.44" x2="42.09" y2="552.87" xlink:href="#linear-gradient-4"/>
    <linearGradient id="linear-gradient-20" x1="26.26" y1="544.45" x2="39.39" y2="558.34" xlink:href="#linear-gradient-4"/>
    <linearGradient id="linear-gradient-21" x1="25.83" y1="542.41" x2="34.89" y2="552" xlink:href="#linear-gradient-4"/>
    <linearGradient id="linear-gradient-22" x1="8.5" y1="558.34" x2="16.27" y2="558.34" xlink:href="#linear-gradient-2"/>
    <radialGradient id="radial-gradient" cx="-79" cy="557.16" fx="-79" fy="557.16" r="7.95" gradientTransform="translate(-226.37 1006) rotate(18.33) scale(1 -1.82)" gradientUnits="userSpaceOnUse">
      <stop offset=".42" stop-color="#f1f0f0"/>
      <stop offset=".58" stop-color="#b4b4b4"/>
      <stop offset="1" stop-color="#5d5d5d"/>
    </radialGradient>
    <linearGradient id="linear-gradient-23" x1="33.32" y1="553.98" x2="35.5" y2="553.98" xlink:href="#linear-gradient-2"/>
    <linearGradient id="linear-gradient-24" x1="31.14" y1="558.03" x2="37.67" y2="558.03" xlink:href="#linear-gradient-4"/>
    <linearGradient id="linear-gradient-25" x1="30.05" y1="561.96" x2="38.45" y2="561.96" xlink:href="#linear-gradient-4"/>
    <linearGradient id="linear-gradient-26" x1="43.55" y1="556.01" x2="64.09" y2="524.11" gradientTransform="translate(0 586.47) scale(1 -1)" gradientUnits="userSpaceOnUse">
      <stop offset="0" stop-color="#fff"/>
      <stop offset="1" stop-color="#c0bfbf"/>
    </linearGradient>
    <linearGradient id="Dégradé_sans_nom_3" data-name="Dégradé sans nom 3" x1="5.52" y1="52.57" x2="14.5" y2="52.57" gradientUnits="userSpaceOnUse">
      <stop offset="0" stop-color="#8dd7f4"/>
      <stop offset=".14" stop-color="#7ec5e2"/>
      <stop offset=".53" stop-color="#5996b4"/>
      <stop offset=".83" stop-color="#417997"/>
      <stop offset="1" stop-color="#396f8d"/>
    </linearGradient>
    <linearGradient id="Dégradé_sans_nom_3-2" data-name="Dégradé sans nom 3" x1="-1112.67" y1="-128.91" x2="-1106.02" y2="-128.91" gradientTransform="translate(-67.87 1122.9) rotate(89.21) scale(1 .9)" xlink:href="#Dégradé_sans_nom_3"/>
    <linearGradient id="Dégradé_sans_nom_3-3" data-name="Dégradé sans nom 3" x1="-1135.49" y1="1325.53" x2="-1128.22" y2="1325.53" gradientTransform="translate(-1171.55 1122.9) rotate(90.79) scale(1 -.9)" xlink:href="#Dégradé_sans_nom_3"/>
  </defs>
  <g>
    <g>
      <polygon class="cls-16" points="47.61 39.71 54.13 38.48 54.13 34.12 47.6 33.03 47.61 39.71"/>
      <polygon class="cls-10" points="48.69 23.23 57.07 21.05 57.07 28.68 48.69 30.85 48.69 23.23"/>
      <polygon class="cls-31" points="61.76 31.94 50.49 35.35 48.69 31.94 48.69 30.85 57.4 28.68 61.76 31.94"/>
      <polygon class="cls-22" points="51.41 34.12 49.78 31.94 57.4 29.77 59.58 31.94 51.41 34.12"/>
      <polyline class="cls-38" points="54.07 34.78 50.42 35.87 47.8 31.94 47.8 30.63 57 28.33"/>
      <g>
        <path class="cls-37" d="M48.69,29.22c-.3,0-.54-.24-.54-.54v-4.36c0-.24.16-.46.4-.52l7.62-2.18c.29-.08.59.09.67.37.01.05.02.1.02.15v4.36c0,.24-.16.46-.39.52l-7.62,2.18s-.1.02-.15.02Z"/>
        <path class="cls-17" d="M56.31,22.14v4.36l-7.62,2.18v-4.36l7.62-2.18M56.31,21.05c-.1,0-.2.01-.3.04l-7.62,2.18c-.47.13-.79.56-.79,1.05v4.36c0,.6.49,1.09,1.09,1.09.1,0,.2-.01.3-.04l7.62-2.18c.47-.13.79-.56.79-1.05v-4.36c0-.6-.49-1.09-1.09-1.09Z"/>
      </g>
      <polygon class="cls-21" points="22.76 52.1 9.69 36.3 9.69 11.94 22.76 23.23 22.76 52.1"/>
      <polygon class="cls-19" points="4.24 27.59 9.69 34.17 9.69 53.73 4.24 45.92 4.24 27.59"/>
      <polygon class="cls-7" points="20.58 31.94 20.58 50.46 9.69 53.73 9.69 34.17 20.58 31.94"/>
      <polygon class="cls-6" points="14.92 25.68 20.58 31.94 9.69 34.17 4.24 27.59 14.92 25.68"/>
      <polygon class="cls-33" points="9.9 11.94 22.76 23.23 47.87 16.72 35.44 6.89 9.9 11.94"/>
      <line class="cls-8" x1="22.76" y1="23.23" x2="9.69" y2="11.84"/>
      <g>
        <path class="cls-36" d="M18.89,16.83c-.88,0-2.92-.12-3-1.27l-.14-1.16c-.02-.15.03-.3.12-.41.1-.12.23-.19.38-.2l6.07-.39c.28,0,.51.2.54.48l.14,1.19c.02.26-.07.52-.25.71-.93.68-2.06,1.04-3.22,1.03-.23.01-.45.02-.66.02Z"/>
        <path class="cls-30" d="M22.33,13.96l.14,1.19c.03.51-1.29,1.02-2.96,1.12-.22.01-.42.02-.62.02-1.37,0-2.43-.31-2.46-.76l-.14-1.19,6.03-.38M22.33,12.87h-.07l-6.03.39c-.6.04-1.06.56-1.02,1.16,0,.02,0,.04,0,.06l.14,1.16c.1,1.12,1.35,1.74,3.54,1.74.22,0,.45,0,.69-.02.63-.04,2.74-.25,3.59-1.21.27-.29.4-.68.38-1.07v-.06l-.14-1.19c-.07-.55-.53-.96-1.08-.96h-.01Z"/>
      </g>
      <polygon class="cls-2" points="47.81 43.93 22.76 52.1 22.76 23.23 47.81 16.69 47.81 43.93"/>
      <g>
        <path class="cls-13" d="M18.75,15.65c-.88,0-2.93-.12-3-1.27-.07-1.09,1.82-1.6,3.47-1.7.22-.01.44-.02.65-.02.88,0,2.93.12,3,1.27.01.25-.08.49-.25.68-.93.68-2.06,1.04-3.21,1.03-.23.01-.44.02-.66.02Z"/>
        <path class="cls-30" d="M19.87,13.2c1.37,0,2.43.31,2.46.76.03.51-1.29,1.02-2.96,1.12-.21.01-.42.02-.62.02-1.38,0-2.43-.31-2.46-.76-.03-.51,1.29-1.02,2.96-1.12.21-.01.42-.02.62-.02M19.87,12.11c-.22,0-.45,0-.69.02-.96.06-4.1.41-3.98,2.28.07,1.15,1.33,1.78,3.55,1.78.22,0,.45,0,.69-.02.63-.04,2.74-.25,3.59-1.21.27-.29.4-.68.38-1.07-.07-1.14-1.33-1.77-3.54-1.77h0Z"/>
      </g>
      <g>
        <path class="cls-23" d="M11.89,30.79c-1.99,0-3.32-.65-3.4-1.66v-.76c.01-.28.23-.52.51-.54l6.72-.49c.3,0,.54.24.54.54,0,0,0,0,0,0v.72c.08,1.21-1.82,2.01-3.75,2.15-.21.01-.42.02-.63.02Z"/>
        <path class="cls-30" d="M15.72,27.89v.72c.05.76-1.4,1.48-3.25,1.62-.2.01-.4.02-.59.02-1.57,0-2.8-.48-2.85-1.15v-.72s6.69-.49,6.69-.49M15.72,26.8h-.08l-6.68.49c-.56.04-1,.51-1.01,1.07v.72s0,.06,0,.09c.1,1.31,1.64,2.16,3.94,2.16.22,0,.44,0,.67-.02,2.57-.19,4.3-1.31,4.25-2.72v-.68c.02-.6-.46-1.1-1.07-1.1,0,0,0,0-.01,0h0ZM15.72,28.98"/>
      </g>
      <g>
        <polygon class="cls-22" points="11.53 35.66 19.16 34.23 19.16 43.5 11.53 45.41 11.53 35.66"/>
        <path class="cls-30" d="M18.61,34.89v8.18l-6.54,1.63v-8.59l6.54-1.23M19.7,33.58l-8.71,1.63v10.89l8.71-2.18v-10.35Z"/>
      </g>
      <g>
        <path class="cls-29" d="M25.15,47.74c-.12,0-.23-.04-.33-.11-.14-.1-.22-.26-.22-.44v-21.79c0-.25.17-.46.41-.53l19.18-4.99s.09-.02.14-.02c.3,0,.54.24.54.54v21.33c0,.24-.16.46-.4.53l-19.18,5.45s-.1.02-.15.02Z"/>
        <path class="cls-30" d="M44.33,20.42v21.33l-19.18,5.45v-21.79l19.18-4.99M44.33,19.33c-.09,0-.18.01-.27.03l-19.18,4.99c-.48.12-.81.56-.81,1.05v21.79c0,.6.49,1.09,1.09,1.09.1,0,.2-.01.3-.04l19.18-5.45c.47-.13.79-.56.79-1.05v-21.33c0-.6-.49-1.09-1.09-1.09h0Z"/>
      </g>
      <polyline class="cls-12" points="45.41 41.78 35.1 30.7 25.53 33.26"/>
      <g>
        <path class="cls-26" d="M25.95,43.48c-.29,0-.53-.23-.54-.51l-.42-7.21c-.01-.25.15-.48.39-.55l11.6-3.41s.1-.02.15-.02c.13,0,.26.05.35.13l5.73,4.9c.12.1.19.25.19.41v.68c0,.24-.16.45-.39.52l-16.91,5.05c-.05.02-.1.02-.16.02Z"/>
        <path class="cls-30" d="M37.13,32.31l5.73,4.9v.68l-16.91,5.05-.42-7.22,11.6-3.41M37.13,31.22c-.1,0-.21.02-.31.04l-11.6,3.41c-.49.14-.81.6-.78,1.11l.42,7.22c.03.6.55,1.06,1.15,1.02.08,0,.17-.02.25-.04l16.91-5.05c.46-.14.78-.56.78-1.04v-.68c0-.32-.14-.62-.38-.83l-5.73-4.9c-.2-.17-.45-.26-.71-.26h0Z"/>
      </g>
      <g>
        <path class="cls-14" d="M25.15,47.74c-.3,0-.54-.24-.54-.54v-2.18c0-.24.16-.45.39-.52l18.09-5.45c.05-.02.1-.02.16-.02.3,0,.54.24.54.54v2.52c0,.24-.16.46-.4.52l-18.09,5.11s-.1.02-.15.02Z"/>
        <path class="cls-30" d="M43.24,39.57v2.52l-18.09,5.11v-2.18l18.09-5.45M43.24,38.48c-.11,0-.21.02-.31.05l-18.09,5.45c-.46.14-.78.56-.78,1.04v2.18c0,.6.49,1.09,1.09,1.09.1,0,.2-.01.3-.04l18.09-5.11c.47-.13.79-.56.79-1.05v-2.52c0-.6-.49-1.09-1.09-1.09Z"/>
      </g>
      <g>
        <path class="cls-35" d="M44.8,41.81c-.29,0-.53-.25-.53-.54v-20.7c0-.21.12-.39.3-.49l1.09-.54c.08-.04.16-.06.24-.06.1,0,.2.03.29.08.16.1.26.27.26.46v21.27c0,.3-.24.54-.54.54l-1.1-.03Z"/>
        <path class="cls-30" d="M45.91,20.02v21.27l-1.09-.03v-20.7l1.09-.54M45.91,18.93c-.17,0-.34.04-.49.12l-1.09.54c-.37.18-.6.56-.6.97v20.7c0,.59.47,1.07,1.06,1.09l1.09.03h.03c.6,0,1.09-.49,1.09-1.09v-21.27c0-.6-.49-1.09-1.09-1.09Z"/>
      </g>
      <g>
        <path class="cls-15" d="M28.42,43.38c-.3,0-.54-.24-.54-.54,0-.11.03-.22.1-.31l3.45-5.02c.07-.11.18-.18.3-.22l7-1.93s.1-.02.14-.02c.13,0,.25.04.35.13l3.36,2.81c.23.19.26.54.07.77-.07.08-.16.14-.26.17l-13.81,4.15c-.05.02-.1.02-.16.02Z"/>
        <path class="cls-17" d="M38.87,35.88l3.36,2.81-13.81,4.15,3.45-5.02,7-1.93M38.87,34.79c-.1,0-.2.01-.29.04l-7,1.93c-.25.07-.46.22-.61.44l-3.45,5.02c-.34.5-.22,1.17.28,1.51.18.13.4.19.62.19.11,0,.21-.02.31-.05l13.81-4.15c.58-.17.9-.78.73-1.36-.06-.2-.18-.39-.35-.52l-3.36-2.8c-.2-.16-.44-.25-.7-.25h0Z"/>
      </g>
      <g>
        <path class="cls-28" d="M28.91,43.38c-.15,0-.3-.06-.4-.18l-3.36-3.68c-.2-.21-.19-.54.01-.75l3.64-3.68c.21-.21.55-.22.76-.02l2.53,2.35c.19.17.23.45.11.67l-2.82,5.02c-.09.15-.24.26-.41.28-.02,0-.04,0-.06,0Z"/>
        <path class="cls-17" d="M29.19,35.47l2.53,2.35-2.81,5.02-3.36-3.68,3.64-3.68M29.19,34.38c-.29,0-.57.12-.78.33l-3.64,3.68c-.41.41-.42,1.07-.03,1.5l3.36,3.68c.21.23.5.36.8.36.04,0,.08,0,.12,0,.35-.04.66-.24.83-.55l2.81-5.02c.25-.44.16-.99-.21-1.33l-2.53-2.35c-.2-.19-.47-.29-.74-.29h0Z"/>
      </g>
      <g>
        <path class="cls-18" d="M31.59,38.29c-.14,0-.27-.05-.37-.14l-2.53-2.35c-.22-.2-.23-.55-.03-.77.07-.07.15-.12.25-.15l6.56-1.88s.1-.02.15-.02c.12,0,.24.04.33.11l2.97,2.3c.24.18.28.53.1.76-.07.09-.17.16-.29.19l-7,1.93s-.09.02-.14.02Z"/>
        <path class="cls-17" d="M35.61,33.51l2.97,2.3-7,1.94-2.53-2.35,6.56-1.88M35.61,32.42c-.1,0-.2.01-.3.04l-6.56,1.88c-.58.17-.91.77-.75,1.35.06.19.16.37.31.51l2.53,2.35c.28.26.67.35,1.03.25l7-1.94c.58-.16.92-.76.76-1.34-.06-.23-.2-.43-.38-.57l-2.97-2.3c-.19-.15-.43-.23-.67-.23h0Z"/>
      </g>
      <g>
        <path class="cls-27" d="M11.83,29.94c-1.48,0-3.24-.4-3.32-1.52-.09-1.23,1.88-1.93,3.75-2.07.24-.02.47-.03.69-.03,1.48,0,3.24.4,3.32,1.52.02.31-.09.62-.31.84-.97.8-2.19,1.24-3.44,1.23-.23.02-.46.03-.69.03Z"/>
        <path class="cls-30" d="M12.94,26.86c1.54,0,2.74.42,2.78,1.02.05.69-1.4,1.35-3.25,1.48-.22.02-.44.02-.65.02-1.54,0-2.73-.42-2.78-1.02-.05-.69,1.4-1.35,3.25-1.48.22-.02.44-.02.65-.02M12.94,25.77c-.24,0-.48,0-.73.03-2.2.16-4.37,1.04-4.25,2.65.09,1.26,1.58,2.03,3.87,2.03.24,0,.48,0,.73-.03,1.4,0,2.76-.5,3.81-1.42.31-.34.47-.78.44-1.24-.09-1.25-1.57-2.03-3.87-2.03h0Z"/>
      </g>
      <path class="cls-9" d="M14.7,27.63s-.11-1.36-.11-2.6c.09-2,.47-3.97,1.11-5.86.62-1.73,1.57-3.33,2.79-4.71,0,0,.15.19,1.02.19.79-.02,1.55-.28,2.19-.75,0,0,.53-4.29-3.16-4.29s-6.53,5.65-7.28,8.06c-.68,2.36-1.1,4.79-1.23,7.25-.02,1.1.01,2.19.11,3.29.67.41,1.44.61,2.22.58.94.1,1.86-.34,2.35-1.15Z"/>
      <path class="cls-3" d="M57.4,28.68l-.33.08v-7.71l-9.26,2.41v-6.72l-12.37-9.84-15.39,3.04c-.47-.23-.99-.34-1.52-.33-1.1.05-2.14.48-2.96,1.21l-5.88,1.12v14.68l-5.45.97v18.33l5.45,7.81,11.55-3.47,1.52,1.83,25.05-8.17v-4.25l6.32-1.2v-4.23l7.62-2.3-4.36-3.27Z"/>
      <g>
        <rect class="cls-24" x="33.32" y="30.31" width="2.18" height="4.36" rx=".54" ry=".54"/>
        <path class="cls-32" d="M34.95,30.85v3.27h-1.09v-3.27h1.09M34.95,29.77h-1.09c-.6,0-1.09.49-1.09,1.09v3.27c0,.6.49,1.09,1.09,1.09h1.09c.6,0,1.09-.49,1.09-1.09v-3.27c0-.6-.49-1.09-1.09-1.09Z"/>
      </g>
      <g>
        <path class="cls-34" d="M34.19,30.92c-2.25,0-3.05-.99-3.05-1.83v-2.59c0-.3.24-.54.54-.54l5.45.02c.3,0,.54.24.54.54v2.57c0,1.2-1.75,1.83-3.49,1.83Z"/>
        <path class="cls-17" d="M31.69,26.5l5.45.02v2.57c0,.71-1.32,1.29-2.94,1.29s-2.51-.57-2.51-1.29v-2.59M31.69,25.41c-.6,0-1.09.49-1.09,1.09v2.59c0,1.1.94,2.38,3.59,2.38,2.37,0,4.03-.98,4.03-2.38v-2.57c0-.6-.49-1.09-1.09-1.09,0,0-5.45-.02-5.45-.02Z"/>
      </g>
      <g>
        <path class="cls-25" d="M33.97,27.52c-2.42,0-3.92-.96-3.92-1.85v-2.01l8.4-2.14v4.36c0,.67-1.74,1.65-4.48,1.65Z"/>
        <path class="cls-17" d="M37.9,22.21v3.63c-.11.31-1.48,1.13-3.94,1.13s-3.38-.93-3.38-1.31v-1.59l7.31-1.86M38.98,20.81l-9.49,2.42v2.44c0,1.21,1.69,2.4,4.47,2.4s5.02-.98,5.02-2.19v-5.06h0Z"/>
      </g>
      <line class="cls-39" x1="48.69" y1="25.41" x2="55.65" y2="23.56"/>
      <line class="cls-39" x1="48.69" y1="27.59" x2="51.96" y2="26.82"/>
      <g>
        <rect class="cls-40" x="13.17" y="37.39" width="1.09" height="1.09"/>
        <rect class="cls-20" x="13.17" y="37.39" width="1.09" height="1.09"/>
      </g>
    </g>
    <g>
      <polygon class="cls-4" points="45.53 49.37 57.51 54.92 57.51 36.3 45.53 30.85 45.53 49.37"/>
      <polygon class="cls-32" points="49.34 37.99 49.34 46.7 54.79 42.58 49.34 37.99"/>
    </g>
  </g>
  <path class="cls-11" d="M8.57,60.16s-1.74-5.6,2.75-9.19l2.23,2.45.94-.95-.42-7.06-7.16-.43-.93.9,2.42,2.24s-6.36,5.2-.21,11.82l.36.23Z"/>
  <g>
    <polygon class="cls-1" points="35.19 10.67 27.14 12.31 27.26 15.25 35.23 13.43 35.25 15.35 37.68 11.48 35.17 8.71 35.19 10.67"/>
    <polygon class="cls-5" points="29.78 5.99 37.62 5.02 37.56 7.84 29.8 9.01 29.8 11.12 26.86 7.86 29.77 3.84 29.78 5.99"/>
  </g>
</svg>