<?xml version="1.0" encoding="UTF-8"?><svg xmlns="http://www.w3.org/2000/svg" xmlns:xlink="http://www.w3.org/1999/xlink" viewBox="0 0 64 64"><defs><style>.cls-1{fill:url(#linear-gradient-12);}.cls-1,.cls-2,.cls-3,.cls-4,.cls-5,.cls-6,.cls-7,.cls-8,.DARK_GREY_Fill_3,.cls-9,.cls-10,.cls-11,.cls-12,.cls-13{stroke-width:0px;}.cls-14{fill:url(#linear-gradient-11);}.cls-14,.Blue_RIGHT_FRONT_SINGLE,.cls-15,.cls-16,.cls-17,.De-emphasized_WHITE_for_Vector_Highlights_6,.cls-18,.cls-19,.cls-20,.cls-21,.cls-22,.cls-23,.cls-24,.cls-25{stroke-linejoin:round;}.cls-14,.cls-15,.cls-16,.cls-17,.cls-19,.cls-20,.cls-21,.cls-22,.cls-23,.cls-25{stroke-linecap:round;}.cls-14,.cls-20{stroke:#6d6d6d;stroke-width:.99px;}.cls-26{opacity:.9;}.cls-2{fill:url(#linear-gradient-15);}.cls-3{fill:url(#linear-gradient-5);}.Blue_RIGHT_FRONT_SINGLE{fill:url(#linear-gradient);stroke:#003755;}.cls-15{fill:#aadcfa;}.cls-15,.cls-16,.cls-17,.cls-18,.cls-19,.cls-21,.cls-22,.cls-23,.cls-24{stroke:#00415f;}.cls-15,.cls-18,.cls-19,.cls-21,.cls-24{stroke-width:.75px;}.cls-16,.cls-17,.cls-22,.cls-23{stroke-width:.5px;}.cls-16,.cls-19,.cls-24{fill:#5a9ab8;}.cls-4,.cls-7{fill:#343434;}.cls-17{fill:url(#linear-gradient-7);}.cls-5{fill:#2d2d2d;}.De-emphasized_WHITE_for_Vector_Highlights_6{fill:#fff;opacity:.5;stroke:#fff;stroke-width:3px;}.cls-6{fill:url(#linear-gradient-16);}.cls-18,.cls-21,.cls-23{fill:#82bddb;}.cls-7{opacity:.7;}.cls-8{fill:url(#linear-gradient-14);}.DARK_GREY_Fill_3{fill:url(#linear-gradient-2);}.cls-20{fill:url(#linear-gradient-9);}.cls-9{fill:url(#linear-gradient-3);}.cls-22{fill:url(#linear-gradient-6);}.cls-10{fill:url(#linear-gradient-8);}.cls-11{fill:#6d6d6d;}.cls-12{fill:url(#linear-gradient-10);}.cls-13{fill:url(#linear-gradient-4);}.cls-25{fill:url(#linear-gradient-13);stroke:#2d2d2d;}</style><linearGradient id="linear-gradient" x1="28.25" y1="37.77" x2="37.75" y2="54.23" gradientUnits="userSpaceOnUse"><stop offset="0" stop-color="#8cd7f5"/><stop offset="1" stop-color="#376e8c"/></linearGradient><linearGradient id="linear-gradient-2" x1="30" y1="46" x2="38" y2="46" gradientUnits="userSpaceOnUse"><stop offset="0" stop-color="#464646"/><stop offset="1" stop-color="#141414"/></linearGradient><linearGradient id="linear-gradient-3" x1="76.85" y1="-9.1" x2="12.82" y2="40.06" gradientUnits="userSpaceOnUse"><stop offset="0" stop-color="#fcfcfc"/><stop offset="1" stop-color="#b3b3b3"/></linearGradient><linearGradient id="linear-gradient-4" x1="23.38" y1="4.03" x2="8.1" y2="28.4" gradientUnits="userSpaceOnUse"><stop offset="0" stop-color="#c9c9c9"/><stop offset="1" stop-color="#737373"/></linearGradient><linearGradient id="linear-gradient-5" x1="37.2" y1="23.59" x2="66.39" y2="23.59" gradientUnits="userSpaceOnUse"><stop offset="0" stop-color="#787878"/><stop offset="1" stop-color="#fcfcfc"/></linearGradient><linearGradient id="linear-gradient-6" x1="26.46" y1="22.08" x2="36.25" y2="22.08" gradientUnits="userSpaceOnUse"><stop offset=".1" stop-color="#195a72"/><stop offset=".5" stop-color="#5a9cb5"/><stop offset="1" stop-color="#93d2f0"/></linearGradient><linearGradient id="linear-gradient-7" x1="6.64" y1="24.6" x2="18.87" y2="24.6" xlink:href="#linear-gradient-6"/><linearGradient id="linear-gradient-8" x1="41.48" y1="11.97" x2="25.64" y2="25.53" xlink:href="#linear-gradient-3"/><linearGradient id="linear-gradient-9" x1="35.6" y1="21.1" x2="38.49" y2="21.1" xlink:href="#linear-gradient-4"/><linearGradient id="linear-gradient-10" x1="32.36" y1="13.4" x2="18.16" y2="26.56" xlink:href="#linear-gradient-3"/><linearGradient id="linear-gradient-11" x1="25.28" y1="23.93" x2="28.05" y2="23.93" xlink:href="#linear-gradient-4"/><linearGradient id="linear-gradient-12" x1="21.88" y1="16.75" x2="3.18" y2="30.94" xlink:href="#linear-gradient-3"/><linearGradient id="linear-gradient-13" x1="39.12" y1="27.93" x2="63.23" y2="65.37" gradientUnits="userSpaceOnUse"><stop offset="0" stop-color="#fff"/><stop offset="1" stop-color="#bfbfbf"/></linearGradient><linearGradient id="linear-gradient-14" x1="44.9" y1="223.33" x2="54.16" y2="232.15" gradientTransform="translate(0 -208.89) rotate(22) scale(1.08 .93) skewX(19.15)" gradientUnits="userSpaceOnUse"><stop offset="0" stop-color="#f0f0f0"/><stop offset="1" stop-color="#b3b3b3"/></linearGradient><linearGradient id="linear-gradient-15" x1="39.35" y1="232.86" x2="48.62" y2="241.68" xlink:href="#linear-gradient-14"/><linearGradient id="linear-gradient-16" x1="45.11" y1="230.73" x2="54.37" y2="239.54" xlink:href="#linear-gradient-14"/></defs><g id="Layer_5"><path class="cls-9" d="m16.52,40.34c-.16,0-.31-.08-.41-.21l-9.02-12.95c-.09-.13-.11-.3-.06-.45.06-.15.18-.27.34-.31l26.43-7s.08-.02.13-.02c.1,0,.21.03.29.1l14.12,10.34c.15.11.23.3.2.48s-.17.34-.34.39l-31.53,9.6s-.1.02-.14.02Z"/><path class="cls-11" d="m33.93,19.9l14.12,10.34-31.53,9.6-9.02-12.94,26.43-7m0-.99c-.08,0-.17.01-.25.03l-26.43,7c-.31.08-.56.31-.68.62-.11.3-.07.64.12.91l9.02,12.94c.19.27.49.42.81.42.1,0,.19-.01.29-.04l31.53-9.6c.36-.11.62-.41.69-.78.06-.37-.09-.74-.39-.96l-14.12-10.34c-.17-.13-.38-.19-.59-.19h0Z"/><polygon class="cls-13" points="7.5 17.97 7.5 26.9 17.91 24.15 7.5 17.97"/><polygon class="cls-3" points="48.05 16.94 48.05 30.24 32.42 18.72 48.05 16.94"/><polygon class="cls-19" points="42.92 26.59 42.92 29.55 33.86 32.33 33.86 29.03 42.92 26.59"/><polygon class="cls-15" points="30.95 26.91 33.86 29.03 42.92 26.59 39.67 24.7 30.95 26.91"/><polygon class="cls-21" points="30.95 26.91 30.98 29.84 33.86 32.33 33.86 29.03 30.95 26.91"/><polygon class="cls-24" points="28.74 30.64 18.08 33.51 18.08 36.93 28.74 33.81 28.74 30.64"/><polygon class="cls-15" points="26.21 28.43 15.68 31.05 18.08 33.51 28.74 30.64 26.21 28.43"/><polygon class="cls-18" points="18.08 36.93 18.08 33.51 15.68 31.05 15.68 33.87 18.08 36.93"/><polygon class="cls-16" points="28.65 25.98 36.25 23.83 36.25 21.98 28.57 23.89 28.65 25.98"/><polygon class="cls-23" points="26.46 21.71 28.57 23.77 28.57 25.98 26.46 23.54 26.46 21.71"/><polygon class="cls-22" points="33.76 20.28 36.25 21.98 28.57 23.89 26.46 21.71 33.76 20.28"/><polygon class="cls-16" points="23.24 23.91 23.24 27.19 13.16 30.01 13.16 26.72 23.24 23.91"/><polygon class="cls-17" points="11.02 24.07 13.16 26.72 23.24 23.91 21.85 22.47 11.02 24.07"/><polygon class="cls-23" points="13.16 30.01 11.06 27.28 11.02 24.07 13.16 26.72 13.16 30.01"/><path class="cls-10" d="m38.49,23.69c-.14,0-.28-.06-.37-.17l-9.62-11.02c-.09-.11-.14-.25-.12-.39.02-.14.1-.27.22-.35l5.6-3.68c.08-.05.18-.08.27-.08s.18.02.26.07l13.59,8.44c.14.09.23.25.23.42s-.08.33-.22.42l-9.56,6.26c-.08.05-.18.08-.27.08Z"/><path class="cls-11" d="m34.46,8.5l13.59,8.44-9.56,6.26-9.63-11.02,5.6-3.68m0-.99c-.19,0-.38.05-.54.16l-5.6,3.68c-.24.16-.4.41-.44.69-.04.28.05.57.24.79l9.63,11.02c.19.22.47.34.75.34.19,0,.38-.05.54-.16l9.56-6.26c.28-.19.45-.5.45-.84s-.18-.65-.47-.83l-13.59-8.44c-.16-.1-.34-.15-.52-.15h0Z"/><polygon class="cls-20" points="38.49 19 38.49 23.2 35.6 21.02 38.49 19"/><path class="cls-12" d="m28.05,26.56c-.15,0-.3-.07-.4-.2l-8.68-11.91c-.08-.11-.11-.25-.08-.39.03-.14.11-.25.23-.33l6.67-3.97c.08-.05.17-.07.25-.07.1,0,.2.03.29.09l12.45,8.82c.13.09.21.25.21.41,0,.16-.08.31-.22.4l-10.44,7.06c-.08.06-.18.08-.28.08Z"/><path class="cls-11" d="m26.04,10.19l12.45,8.82-10.44,7.06-8.69-11.91,6.67-3.97m0-.99c-.17,0-.35.05-.51.14l-6.67,3.97c-.24.14-.41.38-.46.65-.06.27,0,.56.17.78l8.69,11.91c.19.27.49.41.8.41.19,0,.38-.06.55-.17l10.44-7.06c.27-.18.43-.48.44-.81,0-.32-.15-.63-.42-.82l-12.45-8.82c-.17-.12-.37-.18-.57-.18h0Z"/><polygon class="cls-14" points="28.05 21.79 28.05 26.06 25.28 23.55 28.05 21.79"/><path class="cls-1" d="m16.7,29.63c-.14,0-.29-.06-.38-.18l-9.2-11.2c-.09-.11-.13-.25-.11-.39.02-.14.1-.26.22-.34l9.35-6.01c.08-.05.17-.08.27-.08.12,0,.23.04.33.12l11.19,9.87c.12.1.18.25.17.41-.01.15-.09.29-.22.38l-11.35,7.34c-.08.05-.18.08-.27.08Z"/><path class="cls-11" d="m16.86,11.92l11.19,9.87-11.35,7.34-9.2-11.2,9.35-6.01m0-.99c-.19,0-.37.05-.54.16l-9.35,6.01c-.24.15-.4.4-.44.68-.04.28.03.56.21.78l9.2,11.2c.19.24.48.36.77.36.19,0,.37-.05.54-.16l11.35-7.34c.26-.17.43-.45.45-.76.02-.31-.1-.61-.33-.82l-11.19-9.87c-.19-.16-.42-.25-.66-.25h0Z"/><path class="cls-5" d="m34.46,8.5l13.59,8.44v13.31l-31.53,9.61-9.02-12.95v-8.97s9.35-6.01,9.35-6.01l2.51,2.23,6.67-3.97,2.82,2,5.6-3.68m0-.99c-.19,0-.38.05-.54.16l-5.04,3.31-2.27-1.61c-.17-.12-.37-.18-.57-.18-.17,0-.35.05-.51.14l-6.05,3.6-1.97-1.75c-.19-.17-.42-.25-.66-.25-.19,0-.37.05-.54.16l-9.35,6.01c-.28.18-.45.5-.45.83v8.97c0,.2.06.4.17.57l9.02,12.95c.19.27.49.42.81.42.1,0,.19-.01.29-.04l31.53-9.61c.42-.13.7-.51.7-.95v-13.31c0-.34-.18-.66-.47-.84l-13.59-8.44c-.16-.1-.34-.15-.52-.15h0Z"/></g><g id="Layer_1"><polygon class="cls-25" points="40.5 50 56.5 56 56.5 35 40.5 29 40.5 50"/><g class="cls-26"><polygon class="cls-8" points="46.5 38.11 46.5 35.19 50.5 36.81 50.5 39.73 46.5 38.11"/><path class="cls-4" d="m47,35.93l3,1.21v1.84l-3-1.21v-1.84m-1-1.48v4l5,2.02v-4l-5-2.02h0Z"/><polygon class="cls-2" points="42.5 47.5 42.5 44.58 46.5 46.19 46.5 49.11 42.5 47.5"/><path class="cls-4" d="m43,45.32l3,1.21v1.84l-3-1.21v-1.84m-1-1.48v4l5,2.02v-4l-5-2.02h0Z"/><polygon class="cls-6" points="50.5 50.73 50.5 47.81 54.5 49.42 54.5 52.35 50.5 50.73"/><path class="cls-4" d="m51,48.55l3,1.21v1.84l-3-1.21v-1.84m-1-1.48v4l5,2.02v-4l-5-2.02h0Z"/><polygon class="cls-7" points="52 45.88 49 44.66 49 42.66 51 43.47 51 42.47 50 42.07 50 41.07 49 40.66 49 38.66 48 38.26 48 40.26 47 39.86 47 40.86 46 40.45 46 41.45 48 42.26 48 44.26 45 43.05 44 42.64 44 44.64 45 45.05 45 44.05 52 46.88 52 47.88 53 48.28 53 46.28 52 45.88"/></g></g><g id="Layer_6"><circle class="De-emphasized_WHITE_for_Vector_Highlights_6" cx="33" cy="46" r="9.5"/><path class="Blue_RIGHT_FRONT_SINGLE" d="m33,36.5c5.23,0,9.5,4.23,9.5,9.5s-4.29,9.5-9.5,9.5-9.5-4.25-9.5-9.5,4.24-9.5,9.5-9.5Zm0,16c3.63,0,6.5-2.96,6.5-6.5s-2.92-6.5-6.5-6.5-6.5,2.88-6.5,6.5,2.93,6.5,6.5,6.5Z"/><path class="DARK_GREY_Fill_3" d="m30.76,41.3c.13,0,.26.04.38.12l6.5,3.94c.24.13.36.4.36.64,0,.28-.12.49-.36.64l-6.5,3.94c-.12.08-.25.12-.38.12-.39,0-.76-.29-.76-.76v-7.88c0-.47.37-.76.76-.76Z"/></g></svg>