<?xml version="1.0" encoding="UTF-8"?><svg id="DataExperience_reader_-_copie_15" xmlns="http://www.w3.org/2000/svg" xmlns:xlink="http://www.w3.org/1999/xlink" viewBox="0 0 64 64"><defs><linearGradient id="Nouvelle_nuance_de_dégradé_3" x1="28.37" y1="37.53" x2="51.53" y2="37.53" gradientUnits="userSpaceOnUse"><stop offset="0" stop-color="#3485ae"/><stop offset="1" stop-color="#285a79"/></linearGradient></defs><g><path d="m32,53.99c0,.79-.14,1.54-.39,2.24.13,0,.26,0,.39,0s.26,0,.39,0c-.25-.7-.39-1.45-.39-2.24Z" style="fill:none;"/><path d="m32.39,56.24c5.11-.08,9.83-1.74,13.71-4.52-.19.02-.39.03-.58.03-3.73,0-6.76-3.02-6.76-6.76,0,3.73-3.02,6.76-6.76,6.76s-6.76-3.02-6.76-6.76c0,3.73-3.02,6.76-6.76,6.76-.2,0-.39-.01-.58-.03,3.87,2.78,8.6,4.44,13.71,4.52.25-.7.53-.7.78,0Z" style="fill:#d4e7f1;"/><path d="m11.72,45.25s.02.03.03.05c0-.1-.02-.2-.02-.31,0,.09,0,.18-.01.26Z" style="fill:#d4e7f1;"/><path d="m52.25,45.29s.02-.03.03-.05c0-.09-.01-.17-.01-.26,0,.1-.01.21-.02.31Z" style="fill:#d4e7f1;"/><path d="m25.24,44.99c0,3.73,3.02,6.76,6.76,6.76s6.76-3.02,6.76-6.76c0,3.73,3.02,6.76,6.76,6.76.2,0,.39-.01.58-.03,2.43-1.74,4.52-3.92,6.16-6.42,0-.1.02-.2.02-.31,0,.09,0,.18.01.26.56-.86,1.08-1.76,1.53-2.7-.5.12-1.01.18-1.55.18-3.73,0-6.76-3.02-6.76-6.76,0,3.73-3.02,6.76-6.76,6.76s-6.76-3.02-6.76-6.76c0,3.73-3.02,6.76-6.76,6.76s-6.76-3.02-6.76-6.76c0,3.73-3.02,6.76-6.76,6.76-.53,0-1.05-.07-1.55-.18.45.94.97,1.84,1.53,2.7,0-.09.01-.17.01-.26,0,.1.01.21.02.31,1.64,2.5,3.73,4.68,6.16,6.42.19.02.39.03.58.03,3.73,0,6.76-3.02,6.76-6.76Z" style="fill:#368dc3;"/><path d="m18.49,35.98c0,3.73,3.02,6.76,6.76,6.76s6.76-3.02,6.76-6.76c0,3.73,3.02,6.76,6.76,6.76s6.76-3.02,6.76-6.76c0,3.73,3.02,6.76,6.76,6.76.53,0,1.05-.07,1.55-.18,1.39-2.88,2.22-6.08,2.37-9.46-2.31-1.07-3.91-3.41-3.91-6.12,0,3.73-3.02,6.76-6.76,6.76s-6.76-3.02-6.76-6.76c0,3.73-3.02,6.76-6.76,6.76s-6.76-3.02-6.76-6.76c0,3.73-3.02,6.76-6.76,6.76s-6.76-3.02-6.76-6.76c0,2.71-1.6,5.05-3.91,6.12.15,3.38.98,6.58,2.37,9.46.5.12,1.01.18,1.55.18,3.73,0,6.76-3.02,6.76-6.76Z" style="fill:#d4e7f1;"/><path d="m11.73,26.97c0,3.73,3.02,6.76,6.76,6.76s6.76-3.02,6.76-6.76c0,3.73,3.02,6.76,6.76,6.76s6.76-3.02,6.76-6.76c0,3.73,3.02,6.76,6.76,6.76s6.76-3.02,6.76-6.76c0,2.71,1.6,5.05,3.91,6.12.02-.35.03-.7.03-1.06,0-2.75-.46-5.39-1.31-7.85-.81.34-1.7.53-2.63.53-3.73,0-6.76-3.02-6.76-6.76,0,3.73-3.02,6.76-6.76,6.76s-6.76-3.02-6.76-6.76c0,3.73-3.02,6.76-6.76,6.76s-6.76-3.02-6.76-6.76c0,3.73-3.02,6.76-6.76,6.76-.93,0-1.82-.19-2.63-.53-.84,2.46-1.31,5.1-1.31,7.85,0,.35.01.71.03,1.06,2.31-1.07,3.91-3.41,3.91-6.12Z" style="fill:#368dc3;"/><path d="m18.49,17.96c0,3.73,3.02,6.76,6.76,6.76s6.76-3.02,6.76-6.76c0,3.73,3.02,6.76,6.76,6.76s6.76-3.02,6.76-6.76c0,3.73,3.02,6.76,6.76,6.76.93,0,1.82-.19,2.63-.53-1.23-3.6-3.29-6.82-5.95-9.43-1.01.6-2.18.95-3.44.95-3.73,0-6.76-3.02-6.76-6.76,0,3.73-3.02,6.76-6.76,6.76s-6.76-3.02-6.76-6.76c0,3.73-3.02,6.76-6.76,6.76-1.26,0-2.43-.35-3.44-.95-2.66,2.61-4.71,5.83-5.95,9.43.81.34,1.7.53,2.63.53,3.73,0,6.76-3.02,6.76-6.76Z" style="fill:#d4e7f1;"/><path d="m25.24,8.95c0,3.73,3.02,6.76,6.76,6.76s6.76-3.02,6.76-6.76c0,3.73,3.02,6.76,6.76,6.76,1.26,0,2.43-.35,3.44-.95-4.37-4.29-10.35-6.93-16.95-6.93s-12.59,2.65-16.95,6.93c1.01.6,2.18.95,3.44.95,3.73,0,6.76-3.02,6.76-6.76Z" style="fill:#368dc3;"/><polygon points="17.03 21.1 20.08 19.92 20.08 17.5 17.85 17.41 17.03 21.1" style="fill:#d4e7f1;"/><polygon points="47.34 21.33 44.28 20.15 44.28 17.73 46.52 17.64 47.34 21.33" style="fill:#d4e7f1;"/><rect x="16.53" y="35.3" width="3.88" height="5.21" style="fill:#d4e7f1;"/><rect x="43.46" y="35.49" width="3.88" height="5.21" style="fill:#d4e7f1;"/><circle cx="32" cy="32.04" r="24.21" style="fill:none; stroke:#053755; stroke-linejoin:round; stroke-width:1.13px;"/></g><g id="Calque_23_-_copie_20"><g><rect x="16.82" y="7.35" width="28.89" height="40.95" rx="1.7" ry="1.7" style="fill:#f1f1f1;"/><path d="m44,7.59c.81,0,1.46.65,1.46,1.46v37.55c0,.81-.65,1.46-1.46,1.46h-25.48c-.81,0-1.46-.65-1.46-1.46V9.05c0-.81.65-1.46,1.46-1.46h25.48m0-.49h-25.48c-1.07,0-1.95.87-1.95,1.95v37.55c0,1.07.87,1.95,1.95,1.95h25.48c1.07,0,1.95-.87,1.95-1.95V9.05c0-1.07-.87-1.95-1.95-1.95h0Z" style="fill:#053755;"/></g><g><rect x="19.3" y="30.04" width="12.62" height="2" style="fill:#b4b6ba;"/><rect x="19.3" y="43.91" width="12.88" height="2" style="fill:#b4b6ba;"/><rect x="40.51" y="9.98" width="2.78" height="2" style="fill:#b4b6ba;"/><rect x="29.62" y="16.84" width="6.06" height="2" style="fill:#b4b6ba;"/><rect x="19.3" y="23.35" width="11.45" height="2" style="fill:#005686;"/><rect x="29.62" y="9.98" width="7.98" height="2" style="fill:#005686;"/><rect x="38.29" y="16.84" width="5" height="2" style="fill:#005686;"/><rect x="25.18" y="37.06" width="12.21" height="2" style="fill:#005686;"/><rect x="19.3" y="37.06" width="3.41" height="2" style="fill:#b4b6ba;"/><path d="m26.87,9.92l.23,2.09h-.93l-.16-.67c-.02-.08-.07-.14-.16-.19-.09-.05-.19-.07-.3-.07h-1.58v6.57c0,.12.02.22.07.31.05.09.11.14.19.16l.67.16v.93h-3.71v-.93l.67-.16c.08-.02.14-.07.19-.16.05-.09.07-.19.07-.31v-6.57h-1.58c-.12,0-.22.02-.31.07-.09.05-.14.11-.16.19l-.16.67h-.93l.23-2.09h7.66Z" style="fill:#005686;"/></g><g><path d="m37.12,52.89v-2.19h-1.04c-.9,0-1.72-.34-2.36-.98-.64-.64-.97-1.45-.97-2.35v-16.35h-4.37v-8.85h15.41v8.85h-6.56v2.09h14.31v8.85h-14.31v2.09h14.31v8.85h-14.41Z" style="fill:url(#Nouvelle_nuance_de_dégradé_3);"/><path d="m42.64,23.31v6.56h-6.56v6.56h2.19v-2.19h12.12v6.56h-12.12v-2.19h-2.19v8.75h2.19v-2.19h12.12v6.56h-12.12v-2.19h-2.19c-.6,0-1.12-.21-1.55-.64s-.64-.94-.64-1.55v-17.5h-4.37v-6.56h13.12m-10.94,4.38h8.75v-2.19h-8.75v2.19m13.22-6.66h-17.7v11.14h4.37v15.21c0,1.21.45,2.31,1.31,3.16.83.83,1.89,1.29,3.06,1.31v2.19h16.7v-22.07h-7.75v-10.94h0Z" style="fill:#f1f1f1;"/></g></g></svg>