<?xml version="1.0" encoding="UTF-8" standalone="no"?>
<svg
   width="64"
   height="64"
   viewBox="0 0 64 64"
   version="1.1"
   id="svg11"
   sodipodi:docname="X3DRDLP_AP_AppIcon.svg"
   inkscape:version="1.3.2 (091e20e, 2023-11-25, custom)"
   xmlns:inkscape="http://www.inkscape.org/namespaces/inkscape"
   xmlns:sodipodi="http://sodipodi.sourceforge.net/DTD/sodipodi-0.dtd"
   xmlns="http://www.w3.org/2000/svg"
   xmlns:svg="http://www.w3.org/2000/svg"
   xmlns:rdf="http://www.w3.org/1999/02/22-rdf-syntax-ns#"
   xmlns:cc="http://creativecommons.org/ns#"
   xmlns:dc="http://purl.org/dc/elements/1.1/">
  <sodipodi:namedview
     id="namedview11"
     pagecolor="#ffffff"
     bordercolor="#666666"
     borderopacity="1.0"
     inkscape:showpageshadow="2"
     inkscape:pageopacity="0.0"
     inkscape:pagecheckerboard="0"
     inkscape:deskcolor="#d1d1d1"
     inkscape:zoom="12.828125"
     inkscape:cx="32"
     inkscape:cy="32"
     inkscape:window-width="1920"
     inkscape:window-height="1017"
     inkscape:window-x="1912"
     inkscape:window-y="-8"
     inkscape:window-maximized="1"
     inkscape:current-layer="svg11" />
  <defs
     id="defs2">
    <mask
       id="a"
       x="2"
       y="5"
       width="60"
       height="52.5"
       maskUnits="userSpaceOnUse">
      <circle
         cx="32"
         cy="32"
         r="21"
         fill="#fff"
         id="circle1" />
    </mask>
    <linearGradient
       id="b"
       x1="26.743"
       y1="23.895"
       x2="37.257"
       y2="42.105"
       gradientUnits="userSpaceOnUse">
      <stop
         offset="0"
         stop-color="#fff"
         id="stop1" />
      <stop
         offset="1"
         stop-color="#f1f0f0"
         id="stop2" />
    </linearGradient>
    <linearGradient
       id="linear-gradient"
       x1="40.279999"
       y1="36.099998"
       x2="51.720001"
       y2="55.900002"
       gradientUnits="userSpaceOnUse">
      <stop
         offset="0"
         stop-color="#fff"
         id="stop1-3" />
      <stop
         offset="1"
         stop-color="#d4d5d3"
         id="stop2-5" />
    </linearGradient>
    <linearGradient
       id="linear-gradient-2"
       x1="46"
       y1="51"
       x2="46"
       y2="41.77"
       gradientUnits="userSpaceOnUse">
      <stop
         offset="0"
         stop-color="#fff"
         id="stop3" />
      <stop
         offset="1"
         stop-color="#000"
         id="stop4" />
    </linearGradient>
  </defs>
  <title
     id="title2">36449_X3DRDLG_AP_AppIcon_r21x</title>
  <g
     mask="url(#a)"
     id="g8">
    <g
       id="g7">
      <path
         d="M8,42v9.5a6,6,0,0,0,12,0,6,6,0,0,0,12,0,6,6,0,0,0,12,0,6,6,0,0,0,12,0V42Z"
         fill="#d5e8f2"
         id="path2" />
      <path
         d="M2,34v9.5a6,6,0,0,0,12,0,6,6,0,0,0,12,0,6,6,0,0,0,12,0,6,6,0,0,0,12,0,6,6,0,0,0,12,0V34Z"
         fill="#368ec4"
         id="path3" />
      <path
         d="M8,26v9.5a6,6,0,0,0,12,0,6,6,0,0,0,12,0,6,6,0,0,0,12,0,6,6,0,0,0,12,0V26Z"
         fill="#d5e8f2"
         id="path4" />
      <path
         d="M2,18v9.5a6,6,0,0,0,12,0,6,6,0,0,0,12,0,6,6,0,0,0,12,0,6,6,0,0,0,12,0,6,6,0,0,0,12,0V18Z"
         fill="#368ec4"
         id="path5" />
      <path
         d="M8,10v9.5a6,6,0,0,0,12,0,6,6,0,0,0,12,0,6,6,0,0,0,12,0,6,6,0,0,0,12,0V10Z"
         fill="#d5e8f2"
         id="path6" />
      <path
         d="M38,5H14v6.5a6,6,0,0,0,12,0,6,6,0,0,0,12,0,6,6,0,0,0,12,0V5Z"
         fill="#368ec4"
         id="path7" />
    </g>
  </g>
  <circle
     cx="32"
     cy="32"
     r="21.5"
     fill="none"
     stroke="#053755"
     stroke-linejoin="round"
     id="circle8" />
  <g
     id="g11">
    <path
       d="M45.5,27.5v-2h-1L32,17,19.5,25.5h-1v2h2v11h-1v1h-1v2h27v-2h-1v-1h-1v-11ZM23.5,33a3.5,3.5,0,0,1,7,0v5.5h-7Zm10,5.5V33a3.5,3.5,0,0,1,7,0v5.5Z"
       fill="#fff"
       stroke="#fff"
       stroke-linejoin="round"
       stroke-width="3"
       opacity="0.5"
       id="path8" />
    <path
       d="M20.5,27.5v11h3V33A3.5,3.5,0,0,1,27,29.5h0A3.5,3.5,0,0,1,30.5,33v5.5h3V33A3.5,3.5,0,0,1,37,29.5h0A3.5,3.5,0,0,1,40.5,33v5.5h3v-11Z"
       stroke="#787979"
       stroke-linejoin="round"
       fill="url(#b)"
       id="path9" />
    <polygon
       points="18.5 41.5 45.5 41.5 45.5 39.5 44.5 39.5 44.5 38.5 19.5 38.5 19.5 39.5 18.5 39.5 18.5 41.5"
       stroke="#787979"
       stroke-linejoin="round"
       fill="url(#b)"
       id="polygon9" />
    <polygon
       points="18.5 27.5 45.5 27.5 45.5 25.5 44.5 25.5 32 17 19.5 25.5 18.5 25.5 18.5 27.5"
       stroke="#787979"
       stroke-linejoin="round"
       fill="url(#b)"
       id="polygon10" />
    <polygon
       points="40 24 24 24 32 19 40 24"
       fill="#646565"
       opacity="0.5"
       id="polygon11" />
    <line
       x1="19.5"
       y1="25.5"
       x2="44.5"
       y2="25.5"
       fill="none"
       stroke="#787979"
       stroke-linejoin="round"
       opacity="0.5"
       id="line11" />
    <rect
       x="19"
       y="40"
       width="26"
       height="1"
       fill="#646565"
       opacity="0.5"
       id="rect11" />
    <path
       d="M45.5,27.5v-2h-1L32,17,19.5,25.5h-1v2h2v11h-1v1h-1v2h27v-2h-1v-1h-1v-11ZM23.5,33a3.5,3.5,0,0,1,7,0v5.5h-7Zm10,5.5V33a3.5,3.5,0,0,1,7,0v5.5Z"
       fill="none"
       stroke="#323232"
       stroke-linejoin="round"
       id="path11" />
  </g>
  <g
     id="Layer_4"
     transform="translate(0.06699147,-0.26674787)">
    <g
       id="g30">
      <g
         id="g19">
        <path
           d="m 53.86,50.25 c 0,0.3 0.05,0.59 0.16,0.87 0.11,0.28 0.28,0.54 0.52,0.77 l 0.8,0.8 c -0.74,1.03 -1.62,1.92 -2.65,2.65 l -0.8,-0.8 c -0.23,-0.24 -0.49,-0.41 -0.77,-0.52 -0.28,-0.11 -0.57,-0.16 -0.87,-0.16 -0.31,0 -0.61,0.05 -0.89,0.16 -0.28,0.11 -0.53,0.27 -0.75,0.48 -0.22,0.21 -0.4,0.46 -0.53,0.75 -0.13,0.29 -0.2,0.61 -0.2,0.95 v 1.13 c -0.31,0.05 -0.63,0.09 -0.94,0.12 -0.31,0.03 -0.63,0.05 -0.94,0.05 -0.31,0 -0.63,-0.01 -0.94,-0.05 -0.31,-0.03 -0.63,-0.07 -0.94,-0.12 V 56.2 c 0,-0.34 -0.07,-0.66 -0.2,-0.95 -0.13,-0.29 -0.31,-0.54 -0.53,-0.75 -0.22,-0.21 -0.47,-0.37 -0.76,-0.48 -0.29,-0.11 -0.58,-0.16 -0.88,-0.16 -0.3,0 -0.59,0.05 -0.87,0.16 -0.28,0.11 -0.54,0.28 -0.77,0.52 l -0.8,0.8 C 38.28,54.6 37.39,53.72 36.66,52.69 l 0.8,-0.8 c 0.23,-0.24 0.41,-0.49 0.52,-0.77 0.11,-0.28 0.16,-0.57 0.16,-0.87 0,-0.3 -0.06,-0.59 -0.16,-0.88 -0.1,-0.29 -0.27,-0.54 -0.48,-0.76 -0.21,-0.22 -0.46,-0.39 -0.75,-0.53 -0.29,-0.13 -0.61,-0.2 -0.95,-0.2 H 34.67 C 34.62,47.57 34.58,47.25 34.55,46.94 34.52,46.63 34.5,46.31 34.5,46 c 0,-0.31 0.01,-0.63 0.05,-0.94 0.03,-0.31 0.07,-0.63 0.12,-0.94 h 1.13 c 0.34,0 0.66,-0.07 0.95,-0.2 0.29,-0.13 0.54,-0.31 0.75,-0.53 0.21,-0.22 0.37,-0.47 0.48,-0.75 0.11,-0.28 0.16,-0.58 0.16,-0.89 0,-0.31 -0.06,-0.59 -0.16,-0.87 -0.1,-0.28 -0.28,-0.54 -0.52,-0.77 l -0.8,-0.8 c 0.74,-1.03 1.62,-1.92 2.65,-2.65 l 0.8,0.8 c 0.23,0.24 0.49,0.41 0.77,0.52 0.28,0.11 0.57,0.16 0.87,0.16 0.3,0 0.59,-0.05 0.88,-0.16 0.29,-0.11 0.54,-0.27 0.76,-0.48 0.22,-0.21 0.39,-0.46 0.53,-0.74 0.13,-0.28 0.2,-0.6 0.2,-0.96 v -1.13 c 0.31,-0.05 0.63,-0.09 0.94,-0.12 0.31,-0.03 0.63,-0.05 0.94,-0.05 0.31,0 0.63,0.02 0.94,0.05 0.31,0.03 0.63,0.07 0.94,0.12 v 1.13 c 0,0.36 0.07,0.69 0.2,0.97 0.13,0.29 0.31,0.54 0.53,0.74 0.22,0.2 0.47,0.36 0.75,0.47 0.28,0.11 0.58,0.16 0.89,0.16 0.28,0 0.57,-0.05 0.86,-0.15 0.29,-0.1 0.55,-0.27 0.79,-0.5 l 0.8,-0.82 c 1.03,0.74 1.92,1.62 2.65,2.65 l -0.8,0.8 c -0.23,0.24 -0.41,0.49 -0.52,0.77 -0.11,0.28 -0.16,0.57 -0.16,0.87 0,0.31 0.05,0.61 0.16,0.89 0.11,0.28 0.27,0.53 0.48,0.75 0.21,0.22 0.46,0.39 0.74,0.53 0.28,0.13 0.6,0.2 0.96,0.2 h 1.13 c 0.05,0.31 0.09,0.63 0.12,0.94 0.03,0.31 0.05,0.63 0.05,0.94 0,0.31 -0.02,0.63 -0.05,0.94 -0.03,0.31 -0.07,0.63 -0.12,0.94 h -1.13 c -0.36,0 -0.68,0.07 -0.96,0.2 -0.28,0.13 -0.53,0.31 -0.74,0.53 -0.21,0.22 -0.37,0.47 -0.48,0.76 -0.11,0.29 -0.16,0.58 -0.16,0.88 z M 46,49.5 c 0.48,0 0.93,-0.09 1.36,-0.28 0.43,-0.19 0.8,-0.44 1.11,-0.75 0.32,-0.32 0.57,-0.69 0.75,-1.11 0.18,-0.43 0.28,-0.88 0.28,-1.36 0,-0.48 -0.09,-0.93 -0.28,-1.36 -0.19,-0.43 -0.44,-0.8 -0.75,-1.11 C 48.15,43.21 47.78,42.96 47.36,42.78 46.94,42.6 46.48,42.5 46,42.5 c -0.48,0 -0.93,0.09 -1.36,0.28 -0.43,0.19 -0.8,0.44 -1.11,0.75 -0.32,0.32 -0.57,0.69 -0.75,1.11 -0.18,0.43 -0.28,0.88 -0.28,1.36 0,0.48 0.09,0.93 0.28,1.36 0.19,0.43 0.44,0.8 0.75,1.11 0.32,0.32 0.69,0.57 1.11,0.75 0.43,0.19 0.88,0.28 1.36,0.28 z"
           fill="#ffffff"
           opacity="0.7"
           stroke="#ffffff"
           stroke-linejoin="round"
           stroke-width="3"
           id="path18" />
        <path
           d="m 53.86,50.25 c 0,0.3 0.05,0.59 0.16,0.87 0.11,0.28 0.28,0.54 0.52,0.77 l 0.8,0.8 c -0.74,1.03 -1.62,1.92 -2.65,2.65 l -0.8,-0.8 c -0.23,-0.24 -0.49,-0.41 -0.77,-0.52 -0.28,-0.11 -0.57,-0.16 -0.87,-0.16 -0.31,0 -0.61,0.05 -0.89,0.16 -0.28,0.11 -0.53,0.27 -0.75,0.48 -0.22,0.21 -0.4,0.46 -0.53,0.75 -0.13,0.29 -0.2,0.61 -0.2,0.95 v 1.13 c -0.31,0.05 -0.63,0.09 -0.94,0.12 -0.31,0.03 -0.63,0.05 -0.94,0.05 -0.31,0 -0.63,-0.01 -0.94,-0.05 -0.31,-0.03 -0.63,-0.07 -0.94,-0.12 V 56.2 c 0,-0.34 -0.07,-0.66 -0.2,-0.95 -0.13,-0.29 -0.31,-0.54 -0.53,-0.75 -0.22,-0.21 -0.47,-0.37 -0.76,-0.48 -0.29,-0.11 -0.58,-0.16 -0.88,-0.16 -0.3,0 -0.59,0.05 -0.87,0.16 -0.28,0.11 -0.54,0.28 -0.77,0.52 l -0.8,0.8 C 38.28,54.6 37.39,53.72 36.66,52.69 l 0.8,-0.8 c 0.23,-0.24 0.41,-0.49 0.52,-0.77 0.11,-0.28 0.16,-0.57 0.16,-0.87 0,-0.3 -0.06,-0.59 -0.16,-0.88 -0.1,-0.29 -0.27,-0.54 -0.48,-0.76 -0.21,-0.22 -0.46,-0.39 -0.75,-0.53 -0.29,-0.13 -0.61,-0.2 -0.95,-0.2 H 34.67 C 34.62,47.57 34.58,47.25 34.55,46.94 34.52,46.63 34.5,46.31 34.5,46 c 0,-0.31 0.01,-0.63 0.05,-0.94 0.03,-0.31 0.07,-0.63 0.12,-0.94 h 1.13 c 0.34,0 0.66,-0.07 0.95,-0.2 0.29,-0.13 0.54,-0.31 0.75,-0.53 0.21,-0.22 0.37,-0.47 0.48,-0.75 0.11,-0.28 0.16,-0.58 0.16,-0.89 0,-0.31 -0.06,-0.59 -0.16,-0.87 -0.1,-0.28 -0.28,-0.54 -0.52,-0.77 l -0.8,-0.8 c 0.74,-1.03 1.62,-1.92 2.65,-2.65 l 0.8,0.8 c 0.23,0.24 0.49,0.41 0.77,0.52 0.28,0.11 0.57,0.16 0.87,0.16 0.3,0 0.59,-0.05 0.88,-0.16 0.29,-0.11 0.54,-0.27 0.76,-0.48 0.22,-0.21 0.39,-0.46 0.53,-0.74 0.13,-0.28 0.2,-0.6 0.2,-0.96 v -1.13 c 0.31,-0.05 0.63,-0.09 0.94,-0.12 0.31,-0.03 0.63,-0.05 0.94,-0.05 0.31,0 0.63,0.02 0.94,0.05 0.31,0.03 0.63,0.07 0.94,0.12 v 1.13 c 0,0.36 0.07,0.69 0.2,0.97 0.13,0.29 0.31,0.54 0.53,0.74 0.22,0.2 0.47,0.36 0.75,0.47 0.28,0.11 0.58,0.16 0.89,0.16 0.28,0 0.57,-0.05 0.86,-0.15 0.29,-0.1 0.55,-0.27 0.79,-0.5 l 0.8,-0.82 c 1.03,0.74 1.92,1.62 2.65,2.65 l -0.8,0.8 c -0.23,0.24 -0.41,0.49 -0.52,0.77 -0.11,0.28 -0.16,0.57 -0.16,0.87 0,0.31 0.05,0.61 0.16,0.89 0.11,0.28 0.27,0.53 0.48,0.75 0.21,0.22 0.46,0.39 0.74,0.53 0.28,0.13 0.6,0.2 0.96,0.2 h 1.13 c 0.05,0.31 0.09,0.63 0.12,0.94 0.03,0.31 0.05,0.63 0.05,0.94 0,0.31 -0.02,0.63 -0.05,0.94 -0.03,0.31 -0.07,0.63 -0.12,0.94 h -1.13 c -0.36,0 -0.68,0.07 -0.96,0.2 -0.28,0.13 -0.53,0.31 -0.74,0.53 -0.21,0.22 -0.37,0.47 -0.48,0.76 -0.11,0.29 -0.16,0.58 -0.16,0.88 z M 46,49.5 c 0.48,0 0.93,-0.09 1.36,-0.28 0.43,-0.19 0.8,-0.44 1.11,-0.75 0.32,-0.32 0.57,-0.69 0.75,-1.11 0.18,-0.43 0.28,-0.88 0.28,-1.36 0,-0.48 -0.09,-0.93 -0.28,-1.36 -0.19,-0.43 -0.44,-0.8 -0.75,-1.11 C 48.15,43.21 47.78,42.96 47.36,42.78 46.94,42.6 46.48,42.5 46,42.5 c -0.48,0 -0.93,0.09 -1.36,0.28 -0.43,0.19 -0.8,0.44 -1.11,0.75 -0.32,0.32 -0.57,0.69 -0.75,1.11 -0.18,0.43 -0.28,0.88 -0.28,1.36 0,0.48 0.09,0.93 0.28,1.36 0.19,0.43 0.44,0.8 0.75,1.11 0.32,0.32 0.69,0.57 1.11,0.75 0.43,0.19 0.88,0.28 1.36,0.28 z"
           fill="url(#linear-gradient)"
           stroke="#323232"
           stroke-linejoin="round"
           id="path19"
           style="fill:url(#linear-gradient)" />
      </g>
      <g
         opacity="0.2"
         id="g24">
        <path
           d="m 38.44,40.7 c 0.07,0.18 0.12,0.37 0.15,0.56 0.03,-0.17 0.05,-0.34 0.05,-0.51 0,-0.36 -0.07,-0.71 -0.2,-1.05 -0.13,-0.34 -0.34,-0.66 -0.63,-0.95 l -0.02,-0.02 c -0.16,0.18 -0.32,0.34 -0.47,0.53 l 0.49,0.49 c 0.28,0.28 0.49,0.6 0.63,0.95 z"
           id="path20" />
        <path
           d="m 53.56,39.7 c -0.13,0.34 -0.2,0.69 -0.2,1.05 0,0.17 0.02,0.34 0.05,0.51 0.03,-0.19 0.08,-0.38 0.15,-0.56 0.13,-0.34 0.34,-0.66 0.63,-0.94 l 0.49,-0.49 c -0.15,-0.19 -0.31,-0.36 -0.47,-0.53 l -0.03,0.03 c -0.28,0.29 -0.5,0.6 -0.63,0.94 z"
           id="path21" />
        <path
           d="m 56.96,45.89 c -0.02,0.16 -0.04,0.33 -0.06,0.49 h -0.69 c -0.44,0 -0.83,0.08 -1.18,0.25 -0.34,0.16 -0.63,0.37 -0.89,0.63 -0.26,0.27 -0.46,0.58 -0.59,0.93 -0.13,0.34 -0.2,0.7 -0.2,1.06 0,0.17 0.02,0.33 0.05,0.5 0.03,-0.19 0.08,-0.37 0.15,-0.55 0.13,-0.35 0.33,-0.66 0.59,-0.93 0.25,-0.26 0.55,-0.47 0.89,-0.63 0.34,-0.16 0.74,-0.25 1.18,-0.25 h 0.69 c 0.02,-0.16 0.04,-0.33 0.06,-0.49 0.03,-0.3 0.04,-0.59 0.04,-0.89 0,-0.17 -0.02,-0.33 -0.02,-0.5 0,0.13 0,0.26 -0.02,0.39 z"
           id="path22" />
        <path
           d="m 38.44,49.19 c 0.07,0.18 0.12,0.37 0.15,0.55 0.03,-0.16 0.05,-0.33 0.05,-0.5 0,-0.35 -0.07,-0.71 -0.2,-1.06 -0.13,-0.35 -0.33,-0.67 -0.59,-0.93 -0.25,-0.26 -0.56,-0.48 -0.9,-0.63 -0.35,-0.16 -0.74,-0.25 -1.16,-0.25 H 35.1 c -0.02,-0.16 -0.04,-0.33 -0.06,-0.49 -0.01,-0.13 -0.01,-0.26 -0.02,-0.39 0,0.17 -0.02,0.33 -0.02,0.5 0,0.3 0.01,0.59 0.04,0.89 0.02,0.16 0.04,0.33 0.06,0.49 h 0.69 c 0.42,0 0.81,0.08 1.16,0.25 0.35,0.16 0.65,0.37 0.9,0.63 0.26,0.27 0.46,0.58 0.59,0.93 z"
           id="path23" />
        <path
           d="m 52.74,53.68 -0.49,-0.49 c -0.28,-0.29 -0.6,-0.5 -0.95,-0.63 -0.69,-0.27 -1.47,-0.26 -2.12,0 -0.34,0.13 -0.65,0.33 -0.92,0.59 -0.26,0.26 -0.48,0.56 -0.64,0.9 -0.16,0.35 -0.25,0.74 -0.25,1.16 v 0.69 c -0.16,0.02 -0.33,0.04 -0.49,0.05 -0.59,0.06 -1.18,0.06 -1.78,0 -0.16,-0.02 -0.32,-0.03 -0.49,-0.05 v -0.69 c 0,-0.41 -0.08,-0.8 -0.25,-1.16 -0.16,-0.34 -0.37,-0.65 -0.64,-0.9 -0.27,-0.26 -0.58,-0.46 -0.93,-0.59 -0.69,-0.26 -1.44,-0.26 -2.11,0 -0.35,0.13 -0.67,0.35 -0.95,0.63 l -0.49,0.49 c -0.54,-0.42 -1.02,-0.9 -1.48,-1.41 l -0.47,0.47 c 0.56,0.73 1.22,1.38 1.95,1.95 l 0.49,-0.49 c 0.28,-0.28 0.6,-0.5 0.95,-0.63 0.67,-0.26 1.42,-0.26 2.11,0 0.35,0.13 0.66,0.33 0.93,0.59 0.26,0.26 0.48,0.56 0.64,0.9 0.16,0.36 0.25,0.75 0.25,1.16 v 0.69 c 0.16,0.02 0.32,0.04 0.49,0.05 0.6,0.06 1.18,0.06 1.78,0 0.16,-0.02 0.33,-0.03 0.49,-0.05 v -0.69 c 0,-0.42 0.08,-0.81 0.25,-1.16 0.16,-0.34 0.37,-0.65 0.64,-0.9 0.27,-0.26 0.58,-0.46 0.92,-0.59 0.66,-0.26 1.43,-0.27 2.12,0 0.34,0.13 0.66,0.34 0.95,0.63 l 0.49,0.49 c 0.73,-0.56 1.38,-1.22 1.95,-1.95 l -0.47,-0.47 c -0.45,0.51 -0.94,0.99 -1.48,1.41 z"
           id="path24" />
      </g>
      <g
         opacity="0.3"
         id="g29">
        <path
           d="m 53.56,42.82 c -0.07,-0.18 -0.12,-0.37 -0.15,-0.56 -0.03,0.16 -0.05,0.33 -0.05,0.49 0,0.38 0.07,0.74 0.2,1.07 0.13,0.34 0.33,0.65 0.59,0.92 0.25,0.26 0.55,0.47 0.89,0.63 0.35,0.16 0.74,0.25 1.18,0.25 h 0.69 c 0.02,0.16 0.04,0.33 0.06,0.49 0.01,0.13 0.01,0.26 0.02,0.39 0,-0.17 0.02,-0.33 0.02,-0.5 0,-0.3 -0.01,-0.59 -0.04,-0.89 -0.02,-0.16 -0.04,-0.33 -0.06,-0.49 h -0.69 c -0.43,0 -0.83,-0.08 -1.18,-0.25 C 54.7,44.21 54.41,44 54.15,43.74 53.89,43.47 53.69,43.16 53.56,42.82 Z"
           fill="#ffffff"
           id="path25" />
        <path
           d="m 39.26,38.32 0.49,0.49 c 0.28,0.29 0.6,0.5 0.95,0.63 0.68,0.26 1.42,0.26 2.11,0 0.35,-0.13 0.67,-0.33 0.94,-0.59 0.26,-0.25 0.47,-0.55 0.63,-0.88 0.17,-0.35 0.25,-0.75 0.25,-1.18 V 36.1 c 0.16,-0.02 0.33,-0.04 0.49,-0.05 0.59,-0.06 1.18,-0.06 1.78,0 0.16,0.01 0.32,0.03 0.49,0.05 v 0.69 c 0,0.43 0.08,0.83 0.25,1.18 0.16,0.35 0.38,0.65 0.64,0.9 0.27,0.25 0.57,0.44 0.91,0.57 0.64,0.25 1.38,0.27 2.1,0.02 0.36,-0.13 0.69,-0.33 0.98,-0.63 l 0.49,-0.51 c 0.54,0.42 1.02,0.9 1.47,1.41 l 0.47,-0.47 c -0.56,-0.73 -1.21,-1.38 -1.94,-1.94 l -0.49,0.51 c -0.29,0.29 -0.62,0.5 -0.98,0.63 -0.71,0.25 -1.45,0.23 -2.1,-0.02 -0.34,-0.13 -0.64,-0.32 -0.91,-0.57 -0.26,-0.24 -0.48,-0.54 -0.64,-0.9 -0.16,-0.35 -0.25,-0.75 -0.25,-1.18 V 35.1 c -0.16,-0.02 -0.32,-0.04 -0.49,-0.05 -0.6,-0.06 -1.19,-0.06 -1.78,0 -0.17,0.02 -0.33,0.03 -0.49,0.05 v 0.69 c 0,0.43 -0.08,0.83 -0.25,1.18 -0.16,0.33 -0.37,0.63 -0.63,0.88 -0.27,0.26 -0.58,0.46 -0.94,0.59 -0.68,0.26 -1.43,0.26 -2.11,0 -0.34,-0.13 -0.66,-0.34 -0.95,-0.63 l -0.49,-0.49 c -0.73,0.56 -1.38,1.22 -1.95,1.95 l 0.47,0.47 c 0.45,-0.51 0.94,-0.99 1.48,-1.41 z"
           fill="#ffffff"
           id="path26" />
        <path
           d="m 53.56,51.3 c -0.07,-0.18 -0.12,-0.36 -0.15,-0.55 -0.03,0.17 -0.05,0.33 -0.05,0.5 0,0.36 0.07,0.71 0.2,1.05 0.13,0.34 0.34,0.66 0.63,0.95 l 0.02,0.02 c 0.16,-0.18 0.32,-0.34 0.47,-0.53 l -0.49,-0.49 c -0.29,-0.29 -0.5,-0.6 -0.63,-0.95 z"
           fill="#ffffff"
           id="path27" />
        <path
           d="m 38.44,52.3 c 0.13,-0.34 0.2,-0.69 0.2,-1.05 0,-0.17 -0.02,-0.34 -0.05,-0.5 -0.03,0.19 -0.08,0.37 -0.15,0.55 -0.13,0.35 -0.34,0.66 -0.63,0.95 l -0.49,0.49 c 0.14,0.19 0.31,0.36 0.47,0.53 l 0.03,-0.03 c 0.28,-0.28 0.49,-0.6 0.63,-0.95 z"
           fill="#ffffff"
           id="path28" />
        <path
           d="m 35.04,46.11 c 0.02,-0.16 0.04,-0.33 0.06,-0.49 h 0.69 c 0.41,0 0.8,-0.08 1.16,-0.25 0.35,-0.16 0.65,-0.37 0.9,-0.63 0.26,-0.27 0.45,-0.58 0.59,-0.92 0.13,-0.34 0.2,-0.7 0.2,-1.07 0,-0.17 -0.02,-0.33 -0.05,-0.49 -0.03,0.19 -0.08,0.38 -0.15,0.56 -0.13,0.34 -0.33,0.65 -0.59,0.92 -0.25,0.26 -0.56,0.48 -0.9,0.63 -0.36,0.16 -0.75,0.25 -1.16,0.25 H 35.1 c -0.02,0.16 -0.04,0.33 -0.06,0.49 C 35.01,45.41 35,45.7 35,46 c 0,0.17 0.02,0.33 0.02,0.5 0,-0.13 0,-0.26 0.02,-0.39 z"
           fill="#ffffff"
           id="path29" />
      </g>
      <path
         d="m 46,41 c -2.76,0 -5,2.24 -5,5 0,2.76 2.24,5 5,5 2.76,0 5,-2.24 5,-5 0,-2.76 -2.24,-5 -5,-5 z m 0,9 c -2.21,0 -4,-1.79 -4,-4 0,-2.21 1.79,-4 4,-4 2.21,0 4,1.79 4,4 0,2.21 -1.79,4 -4,4 z"
         fill="url(#linear-gradient-2)"
         opacity="0.3"
         id="path30"
         style="fill:url(#linear-gradient-2)" />
    </g>
  </g>
  <metadata
     id="metadata11">
    <rdf:RDF>
      <cc:Work
         rdf:about="">
        <dc:title>36449_X3DRDLG_AP_AppIcon_r21x</dc:title>
      </cc:Work>
    </rdf:RDF>
  </metadata>
</svg>
