<?xml version="1.0" encoding="UTF-8"?><svg id="Layer_31_copy" xmlns="http://www.w3.org/2000/svg" xmlns:xlink="http://www.w3.org/1999/xlink" viewBox="0 0 64 64"><defs><style>.cls-1{fill:#797979;}.cls-2{fill:url(#linear-gradient-2);}.cls-3,.cls-4,.cls-5,.cls-6{fill:#fff;}.cls-7,.cls-8{stroke:#053755;stroke-linejoin:round;}.cls-7,.cls-8,.cls-9{fill:none;}.cls-10{fill:#323232;}.cls-11{fill:#f1f0f0;}.cls-12{fill:#368ec4;}.cls-4{stroke:#2d6d8b;stroke-miterlimit:10;stroke-width:.03px;}.cls-13{opacity:.75;}.cls-8{stroke-width:1.47px;}.cls-14{clip-path:url(#clippath);}.cls-15{fill:#d5e8f2;}.cls-16{fill:#0c479c;}.cls-17{fill:url(#top_white);}.cls-18{fill:url(#white_left);}.cls-5{opacity:.74;}.cls-19{fill:url(#linear-gradient-3);}.cls-20{fill:url(#linear-gradient);}.cls-21{fill:url(#white_front_right);}.cls-6{opacity:.65;}</style><clipPath id="clippath"><path class="cls-9" d="m36.17,6.18c6.88.99,11.64,7.38,10.63,14.25-1.02,6.87-7.43,11.64-14.31,10.65-6.89-.99-11.65-7.37-10.64-14.24,1.02-6.88,7.43-11.65,14.31-10.66Z"/></clipPath><linearGradient id="linear-gradient" x1="-9200.11" y1="-8170.99" x2="-9200.71" y2="-8170.28" gradientTransform="translate(8564.82 11837.69) rotate(-7.49) scale(1.02 1.57) skewX(-16.36)" gradientUnits="userSpaceOnUse"><stop offset="0" stop-color="#fff"/><stop offset=".24" stop-color="#fbfbfb"/><stop offset=".43" stop-color="#f1f1f1"/><stop offset=".46" stop-color="#f0f0f0"/></linearGradient><linearGradient id="white_front_right" x1="-9200.66" y1="-8170.36" x2="-9200.04" y2="-8169.29" gradientTransform="translate(8564.82 11837.69) rotate(-7.49) scale(1.02 1.57) skewX(-16.36)" gradientUnits="userSpaceOnUse"><stop offset="0" stop-color="#fff"/><stop offset="1" stop-color="#d2d2d2"/></linearGradient><linearGradient id="top_white" x1="-9201.55" y1="-8172.18" x2="-9198.08" y2="-8172.18" gradientTransform="translate(8564.82 11837.69) rotate(-7.49) scale(1.02 1.57) skewX(-16.36)" gradientUnits="userSpaceOnUse"><stop offset="0" stop-color="#fff"/><stop offset="1" stop-color="#f0f0f0"/></linearGradient><linearGradient id="linear-gradient-2" x1="-9200.61" y1="-8171.32" x2="-9201.34" y2="-8170.07" gradientTransform="translate(8564.82 11837.69) rotate(-7.49) scale(1.02 1.57) skewX(-16.36)" gradientUnits="userSpaceOnUse"><stop offset=".16" stop-color="#f5f5f5"/><stop offset=".27" stop-color="#e6e6e6"/><stop offset=".48" stop-color="#c1c1c1"/><stop offset=".5" stop-color="#bebebe"/></linearGradient><linearGradient id="white_left" x1="-9200.44" y1="-8170.84" x2="-9197.34" y2="-8170.84" gradientTransform="translate(8564.82 11837.69) rotate(-7.49) scale(1.02 1.57) skewX(-16.36)" gradientUnits="userSpaceOnUse"><stop offset="0" stop-color="#f5f5f5"/><stop offset="1" stop-color="#bebebe"/></linearGradient><linearGradient id="linear-gradient-3" x1="-9195.35" y1="-8173.51" x2="-9188.29" y2="-8161.28" gradientTransform="translate(8564.82 11837.69) rotate(-7.49) scale(1.02 1.57) skewX(-16.36)" gradientUnits="userSpaceOnUse"><stop offset=".04" stop-color="#141414"/><stop offset="1" stop-color="#464646"/></linearGradient></defs><g id="Layer_31"><g id="Layer_1"><path class="cls-15" d="m40.75,53c-3.31,0-6-2.69-6-6,0,3.31-2.69,6-6,6s-6-2.69-6-6c0,3.31-2.69,6-6,6-.17,0-.33,0-.49-.02,3.44,2.46,7.62,3.94,12.15,4.01h.68c4.53-.07,8.71-1.55,12.15-4.01-.16,0-.33.02-.49.02Z"/><path class="cls-15" d="m46.74,47.26s.02-.03.02-.04c0-.07,0-.15,0-.22,0,.09,0,.17-.01.26Z"/><path class="cls-15" d="m10.74,47.22s.02.03.02.04c0-.09-.01-.17-.01-.26,0,.07,0,.15-.01.22Z"/><path class="cls-12" d="m46.75,45c-3.31,0-6-2.69-6-6,0,3.31-2.69,6-6,6s-6-2.69-6-6c0,3.31-2.69,6-6,6s-6-2.69-6-6c0,3.31-2.69,6-6,6-.46,0-.91-.06-1.34-.16.11.22.2.44.32.66.31.59.65,1.16,1.01,1.72,0-.07.01-.15.01-.22,0,.09,0,.17.01.26,1.46,2.23,3.33,4.16,5.49,5.72.16,0,.33.02.49.02,3.31,0,6-2.69,6-6,0,3.31,2.69,6,6,6s6-2.69,6-6c0,3.31,2.69,6,6,6,.17,0,.33,0,.49-.02,2.17-1.55,4.03-3.48,5.49-5.72,0-.09,0-.17,0-.26,0,.07,0,.15,0,.22.36-.56.7-1.13,1.01-1.72.11-.21.21-.44.32-.66-.43.1-.88.16-1.34.16h.02Z"/><path class="cls-15" d="m46.75,31c0,3.31-2.69,6-6,6s-6-2.69-6-6c0,3.31-2.69,6-6,6s-6-2.69-6-6c0,3.31-2.69,6-6,6s-6-2.69-6-6c0,2.4-1.41,4.47-3.45,5.43.02.36.02.72.05,1.07.24,2.62.96,5.09,2.06,7.34.43.1.88.16,1.34.16,3.31,0,6-2.69,6-6,0,3.31,2.69,6,6,6s6-2.69,6-6c0,3.31,2.69,6,6,6s6-2.69,6-6c0,3.31,2.69,6,6,6,.46,0,.91-.06,1.34-.16,1.09-2.26,1.82-4.73,2.06-7.34.03-.35.04-.71.05-1.07-2.04-.96-3.45-3.02-3.45-5.43Z"/><path class="cls-12" d="m49.38,29.5c-.09-.33-.2-.65-.31-.97-.71.3-1.5.47-2.32.47-3.31,0-6-2.69-6-6,0,3.31-2.69,6-6,6s-6-2.69-6-6c0,3.31-2.69,6-6,6s-6-2.69-6-6c0,3.31-2.69,6-6,6-.82,0-1.61-.17-2.32-.47-.11.32-.22.64-.31.97-.55,1.91-.87,3.92-.87,6,0,.31.03.62.05.93,2.04-.96,3.45-3.02,3.45-5.43,0,3.31,2.69,6,6,6s6-2.69,6-6c0,3.31,2.69,6,6,6s6-2.69,6-6c0,3.31,2.69,6,6,6s6-2.69,6-6c0,2.4,1.41,4.47,3.45,5.43,0-.31.05-.61.05-.93,0-2.08-.31-4.09-.87-6Z"/><path class="cls-15" d="m45.05,21.5c-.4-.46-.81-.91-1.24-1.34-.89.53-1.94.84-3.05.84-3.31,0-6-2.69-6-6,0,3.31-2.69,6-6,6s-6-2.69-6-6c0,3.31-2.69,6-6,6-1.12,0-2.16-.31-3.05-.84-.44.43-.85.88-1.24,1.34-1.76,2.05-3.13,4.43-4.03,7.03.71.3,1.5.47,2.32.47,3.31,0,6-2.69,6-6,0,3.31,2.69,6,6,6s6-2.69,6-6c0,3.31,2.69,6,6,6s6-2.69,6-6c0,3.31,2.69,6,6,6,.82,0,1.61-.17,2.32-.47-.89-2.61-2.27-4.99-4.03-7.03Z"/><path class="cls-12" d="m22.75,15c0,3.31,2.69,6,6,6s6-2.69,6-6c0,3.31,2.69,6,6,6,1.12,0,2.16-.31,3.05-.84-3.88-3.81-9.19-6.16-15.05-6.16s-11.17,2.35-15.05,6.16c.89.53,1.94.84,3.05.84,3.31,0,6-2.69,6-6Z"/><circle class="cls-7" cx="28.75" cy="35.5" r="21.5"/><g><g class="cls-13"><path class="cls-3" d="m35.22,51.22c-3.33-.02-6.02-2.73-6.01-6.06,0-2.03-4.22-4.4-6.39-4.4-.5,0-.98.17-1.35.5-2.85,1.75-6.57.86-8.32-1.99-1.75-2.85-.86-6.57,1.99-8.32.94-.58,2.03-.89,3.14-.89.88,0,1.76.2,2.56.56.14.06.26.11.37.14.05.01.09.04.13.06h0c.28.13.59.19.89.17,2.4,0,6.27-2.87,6.27-4.26l-.02-.84c-.01-3.33,2.67-6.03,6-6.05s6.03,2.67,6.05,6h0c0,1.84-.84,3.57-2.26,4.73h0c-.16.13-.39.32-.73.59-.09.06-.99.68-.99,3.81,0,3.85,1.07,4.55,1.08,4.56.05.02.09.06.13.1h0s.05.01.07.02c3.03,1.46,4.29,5.1,2.83,8.13-1.01,2.08-3.11,3.42-5.42,3.44h-.02Zm-10.94-14.66c.33,1.53,4.42,4.02,6.63,4.02.14,0,.29,0,.43-.05.4-.34.84-.62,1.31-.85.35-.33,1.03-1.28,1.03-3.69,0-2.02-.39-3.68-1.01-4.38-.44-.13-.86-.32-1.25-.57-.19-.15-.42-.22-.66-.2-2.25,0-6.54,3.04-6.54,4.29,0,.04,0,.1.02.17.05.42.07.84.04,1.26Z"/><path class="cls-3" d="m34.51,20.28c3.06.01,5.53,2.5,5.52,5.57,0,1.68-.77,3.28-2.08,4.34h0l-.74.58s-1.18.63-1.18,4.2c0,4.37,1.35,5,1.35,5,2.02.94,3.33,2.95,3.37,5.19.04,3.05-2.4,5.55-5.45,5.59s-5.55-2.4-5.59-5.45v-.15c0-2.44-4.63-4.9-6.89-4.9-.6,0-1.18.2-1.64.59-2.62,1.59-6.03.76-7.62-1.85-1.59-2.62-.76-6.03,1.85-7.62.86-.53,1.86-.81,2.87-.81.96.04,1.91.27,2.78.68.36.2.77.29,1.17.26,2.48,0,6.77-2.95,6.77-4.76h0s0-.1-.02-.85c-.04-3.06,2.41-5.57,5.47-5.61h.06m-3.6,20.8c.23,0,.46-.03.68-.1.4-.36.85-.65,1.34-.87.45-.38,1.26-1.44,1.26-4.11,0-2.23-.44-4.05-1.25-4.82-1.47-.44-1.23-.83-2.18-.83-2.38,0-7.04,3.16-7.04,4.79.06.48.08.97.05,1.45.3,1.88,4.83,4.49,7.13,4.49m7.04-10.89h0m-3.45-10.9c-3.61.01-6.53,2.95-6.52,6.56v.45l.02.4v.03c0,1.01-3.57,3.76-5.77,3.76-.21,0-.43-.03-.63-.1-.07-.06-.15-.09-.24-.11-.1-.03-.21-.08-.33-.13-.87-.39-1.8-.59-2.75-.6-3.62-.01-6.57,2.91-6.59,6.53-.01,3.62,2.91,6.57,6.53,6.59,1.23,0,2.44-.34,3.48-.98l.05-.03c.29-.27.67-.42,1.06-.41,1.9,0,5.89,2.19,5.89,3.9.03,3.6,2.97,6.5,6.58,6.47,3.6-.03,6.5-2.97,6.47-6.58-.02-2.49-1.46-4.75-3.7-5.83l-.08-.04s-.05-.04-.08-.06c-.09-.09-.86-.91-.86-4.14,0-2.76.71-3.36.72-3.36.03-.02.06-.04.08-.06l.74-.58c1.54-1.25,2.44-3.14,2.45-5.12,0-3.61-2.91-6.55-6.52-6.57h0Zm-9.71,17.24c.02-.42,0-.85-.05-1.27,0-.05-.01-.1-.01-.13.11-.94,4.03-3.77,6.04-3.77.14-.02.29.02.39.12.38.25.79.44,1.22.58.64,1.21.92,2.58.81,3.94,0,2.15-.56,2.99-.83,3.28-.44.22-.86.49-1.24.8-.07,0-.14,0-.21,0-2.02,0-5.77-2.37-6.13-3.56h.01Z"/></g><path class="cls-16" d="m37.38,39.97s-1.35-.63-1.35-5c0-3.58,1.14-4.17,1.18-4.2l.74-.58h0c1.3-1.07,2.06-2.66,2.07-4.34,0-3.05-2.49-5.51-5.54-5.5s-5.51,2.49-5.5,5.54c.03.28.03.56.02.85,0,1.81-4.29,4.76-6.77,4.76-.41.02-.82-.07-1.17-.26-.87-.41-1.82-.65-2.78-.68-3.07-.02-5.57,2.46-5.59,5.53s2.46,5.57,5.53,5.59c1.04,0,2.07-.28,2.95-.83.45-.39,1.04-.6,1.64-.59,2.26,0,6.89,2.46,6.89,4.9,0,3.05,2.47,5.52,5.52,5.53,3.05,0,5.52-2.47,5.53-5.52h0c-.04-2.23-1.35-4.25-3.37-5.19h0Zm-4.45.12c-.49.22-.94.52-1.34.87-1.93.69-7.48-2.3-7.81-4.39.03-.48.01-.97-.05-1.45,0-1.63,4.65-4.79,7.04-4.79.95,0,.71.39,2.18.83.8.77,1.25,2.59,1.25,4.82,0,2.67-.81,3.73-1.26,4.12h-.01Z"/><path class="cls-3" d="m34.56,21.17c-2.51.08-4.52,2.12-4.56,4.63-.02,1.03.4,2.03,1.14,2.75-.39-.43-.6-1-.56-1.58.02-.76.22-1.51.59-2.18.12-.2.33-.33.57-.33.19,0,.38.08.58.08.64,0,1.15-.53,1.15-1.18,0-.29-.12-.57-.32-.78.77-.52,1.67-.82,2.59-.85.47-.03.93.11,1.31.4-.68-.62-1.56-.96-2.48-.95h-.01Z"/><path class="cls-3" d="m35.5,40.49c-2.51.08-4.52,2.12-4.56,4.63-.02,1.03.4,2.03,1.14,2.75-.39-.43-.6-1-.56-1.58.02-.76.22-1.51.59-2.18.12-.2.33-.33.57-.33.19,0,.38.08.58.08.64,0,1.15-.53,1.15-1.17,0-.29-.12-.57-.32-.79.77-.52,1.67-.82,2.59-.85.47-.03.93.11,1.31.4-.68-.62-1.56-.96-2.48-.95h-.01Z"/><path class="cls-3" d="m18.4,31.64c-2.51.08-4.52,2.12-4.56,4.63-.02,1.03.4,2.03,1.14,2.75-.39-.43-.6-1-.57-1.58.02-.76.22-1.51.59-2.18.12-.2.33-.33.57-.33.19,0,.38.08.58.08.64,0,1.15-.53,1.15-1.18,0-.29-.12-.57-.32-.78.77-.52,1.67-.82,2.59-.85.47-.03.93.11,1.31.4-.68-.62-1.56-.96-2.48-.95h0Z"/></g></g></g><path class="cls-6" d="m48.52,25.77c.86,2.23,3.13,6.29,1.91,12.99-2.04-1.63-6.24-4.72-7.98-5.94-2.93,1.59-6.81,2.02-10.44,1.5-8.68-1.25-14.68-9.29-13.4-17.95.1-.68.29-.75.29-.75,0,0,7.16-2.81,10.6-1.98,7.76,1.87,15.48,4.88,19.02,12.13Z"/><g class="cls-14"><g id="Layer_1-2"><path class="cls-15" d="m49.79,57.86c-4.87,0-8.82-3.95-8.82-8.82,0,4.87-3.95,8.82-8.82,8.82s-8.82-3.95-8.82-8.82c0,4.87-3.95,8.82-8.82,8.82-.25,0-.49-.01-.72-.03,5.06,3.62,11.2,5.79,17.86,5.9h1c6.66-.1,12.81-2.28,17.86-5.9-.24.01-.49.03-.72.03Z"/><path class="cls-15" d="m58.6,49.42s.03-.04.03-.06c0-.1-.01-.22-.01-.32,0,.13,0,.25-.01.38Z"/><path class="cls-15" d="m5.68,49.36s.03.04.03.06c0-.13-.01-.25-.01-.38,0,.1,0,.22-.01.32Z"/><path class="cls-12" d="m58.62,46.1c-4.87,0-8.82-3.95-8.82-8.82,0,4.87-3.95,8.82-8.82,8.82s-8.82-3.95-8.82-8.82c0,4.87-3.95,8.82-8.82,8.82s-8.82-3.95-8.82-8.82c0,4.87-3.95,8.82-8.82,8.82-.68,0-1.34-.09-1.97-.24.16.32.29.65.47.97.46.87.96,1.71,1.48,2.53,0-.1.01-.22.01-.32,0,.13,0,.25.01.38,2.15,3.28,4.9,6.12,8.07,8.41.24.01.49.03.72.03,4.87,0,8.82-3.95,8.82-8.82,0,4.87,3.95,8.82,8.82,8.82s8.82-3.95,8.82-8.82c0,4.87,3.95,8.82,8.82,8.82.25,0,.49-.01.72-.03,3.19-2.28,5.92-5.12,8.07-8.41,0-.13.01-.25.01-.38,0,.1,0,.22.01.32.53-.82,1.03-1.66,1.48-2.53.16-.31.31-.65.47-.97-.63.15-1.29.24-1.97.24h.03Z"/><path class="cls-15" d="m58.62,25.51c0,4.87-3.95,8.82-8.82,8.82s-8.82-3.95-8.82-8.82c0,4.87-3.95,8.82-8.82,8.82s-8.82-3.95-8.82-8.82c0,4.87-3.95,8.82-8.82,8.82s-8.82-3.95-8.82-8.82c0,3.53-2.07,6.57-5.07,7.98.03.53.03,1.06.07,1.57.35,3.85,1.41,7.48,3.03,10.79.63.15,1.29.24,1.97.24,4.87,0,8.82-3.95,8.82-8.82,0,4.87,3.95,8.82,8.82,8.82s8.82-3.95,8.82-8.82c0,4.87,3.95,8.82,8.82,8.82s8.82-3.95,8.82-8.82c0,4.87,3.95,8.82,8.82,8.82.68,0,1.34-.09,1.97-.24,1.6-3.32,2.68-6.95,3.03-10.79.04-.51.06-1.04.07-1.57-3-1.41-5.07-4.44-5.07-7.98Z"/><path class="cls-12" d="m62.48,23.31c-.13-.49-.29-.96-.46-1.43-1.04.44-2.21.69-3.41.69-4.87,0-8.82-3.95-8.82-8.82,0,4.87-3.95,8.82-8.82,8.82s-8.82-3.95-8.82-8.82c0,4.87-3.95,8.82-8.82,8.82s-8.82-3.95-8.82-8.82c0,4.87-3.95,8.82-8.82,8.82-1.21,0-2.37-.25-3.41-.69-.16.47-.32.94-.46,1.43-.81,2.81-1.28,5.76-1.28,8.82,0,.46.04.91.07,1.37,3-1.41,5.07-4.44,5.07-7.98,0,4.87,3.95,8.82,8.82,8.82s8.82-3.95,8.82-8.82c0,4.87,3.95,8.82,8.82,8.82s8.82-3.95,8.82-8.82c0,4.87,3.95,8.82,8.82,8.82s8.82-3.95,8.82-8.82c0,3.53,2.07,6.57,5.07,7.98.01-.46.07-.9.07-1.37,0-3.06-.46-6.01-1.28-8.82Z"/><path class="cls-15" d="m56.12,11.55c-.59-.68-1.19-1.34-1.82-1.97-1.31.78-2.85,1.23-4.48,1.23-4.87,0-8.82-3.95-8.82-8.82,0,4.87-3.95,8.82-8.82,8.82s-8.82-3.95-8.82-8.82c0,4.87-3.95,8.82-8.82,8.82-1.65,0-3.18-.46-4.48-1.23-.65.63-1.25,1.29-1.82,1.97-2.59,3.01-4.6,6.51-5.92,10.34,1.04.44,2.21.69,3.41.69,4.87,0,8.82-3.95,8.82-8.82,0,4.87,3.95,8.82,8.82,8.82s8.82-3.95,8.82-8.82c0,4.87,3.95,8.82,8.82,8.82s8.82-3.95,8.82-8.82c0,4.87,3.95,8.82,8.82,8.82,1.21,0,2.37-.25,3.41-.69-1.31-3.84-3.34-7.34-5.92-10.34Z"/><path class="cls-12" d="m23.33,1.99c0,4.87,3.95,8.82,8.82,8.82s8.82-3.95,8.82-8.82c0,4.87,3.95,8.82,8.82,8.82,1.65,0,3.18-.46,4.48-1.23C48.57,3.98,40.77.52,32.15.52S15.73,3.98,10.03,9.58c1.31.78,2.85,1.23,4.48,1.23,4.87,0,8.82-3.95,8.82-8.82Z"/><circle class="cls-8" cx="32.15" cy="32.13" r="31.61"/><g><g class="cls-13"><path class="cls-3" d="m41.66,55.24c-4.9-.03-8.85-4.01-8.84-8.91,0-2.98-6.2-6.47-9.39-6.47-.74-.01-1.44.25-1.98.74-4.19,2.57-9.66,1.26-12.23-2.93-2.57-4.19-1.26-9.66,2.93-12.23,1.38-.85,2.98-1.31,4.62-1.31,1.29,0,2.59.29,3.76.82.21.09.38.16.54.21.07.01.13.06.19.09h0c.41.19.87.28,1.31.25,3.53,0,9.22-4.22,9.22-6.26l-.03-1.23c-.01-4.9,3.93-8.87,8.82-8.89s8.87,3.93,8.89,8.82h0c-.01,2.71-1.23,5.25-3.32,6.95h0c-.24.19-.57.47-1.07.87-.13.09-1.46,1-1.46,5.6,0,5.66,1.57,6.69,1.59,6.7.07.03.13.09.19.15h0s.07.01.1.03c4.45,2.15,6.31,7.5,4.16,11.95-1.48,3.06-4.57,5.03-7.97,5.06h-.03Zm-16.08-21.55c.49,2.25,6.5,5.91,9.75,5.91.21,0,.43-.01.63-.07.59-.5,1.23-.91,1.93-1.25.51-.49,1.51-1.88,1.51-5.42,0-2.97-.57-5.41-1.48-6.44-.65-.19-1.26-.47-1.84-.84-.28-.22-.62-.32-.97-.29-3.31,0-9.61,4.47-9.61,6.31,0,.06,0,.15.03.25.07.62.1,1.23.06,1.85Z"/><path class="cls-3" d="m40.62,9.75c4.5.01,8.13,3.68,8.12,8.19-.01,2.47-1.13,4.82-3.06,6.38h0l-1.09.85s-1.73.93-1.73,6.17c0,6.42,1.98,7.35,1.98,7.35,2.97,1.38,4.9,4.34,4.95,7.63.06,4.48-3.53,8.16-8.01,8.22s-8.16-3.53-8.22-8.01v-.22c0-3.59-6.81-7.2-10.13-7.2-.88-.01-1.73.29-2.41.87-3.85,2.34-8.87,1.12-11.2-2.72-2.34-3.85-1.12-8.87,2.72-11.2,1.26-.78,2.73-1.19,4.22-1.19,1.41.06,2.81.4,4.09,1,.53.29,1.13.43,1.72.38,3.65,0,9.95-4.34,9.95-7h0s0-.15-.03-1.25c-.06-4.5,3.54-8.19,8.04-8.25h.09m-5.29,30.58c.34,0,.68-.04,1-.15.59-.53,1.25-.96,1.97-1.28.66-.56,1.85-2.12,1.85-6.04,0-3.28-.65-5.95-1.84-7.09-2.16-.65-1.81-1.22-3.2-1.22-3.5,0-10.35,4.65-10.35,7.04.09.71.12,1.43.07,2.13.44,2.76,7.1,6.6,10.48,6.6m10.35-16.01h0m-5.07-16.02c-5.31.01-9.6,4.34-9.59,9.64v.66l.03.59v.04c0,1.48-5.25,5.53-8.48,5.53-.31,0-.63-.04-.93-.15-.1-.09-.22-.13-.35-.16-.15-.04-.31-.12-.49-.19-1.28-.57-2.65-.87-4.04-.88-5.32-.01-9.66,4.28-9.69,9.6-.01,5.32,4.28,9.66,9.6,9.69,1.81,0,3.59-.5,5.12-1.44l.07-.04c.43-.4.99-.62,1.56-.6,2.79,0,8.66,3.22,8.66,5.73.04,5.29,4.37,9.56,9.67,9.51,5.29-.04,9.56-4.37,9.51-9.67-.03-3.66-2.15-6.98-5.44-8.57l-.12-.06s-.07-.06-.12-.09c-.13-.13-1.26-1.34-1.26-6.09,0-4.06,1.04-4.94,1.06-4.94.04-.03.09-.06.12-.09l1.09-.85c2.26-1.84,3.59-4.62,3.6-7.53,0-5.31-4.28-9.63-9.59-9.66h0Zm-14.28,25.35c.03-.62,0-1.25-.07-1.87,0-.07-.01-.15-.01-.19.16-1.38,5.92-5.54,8.88-5.54.21-.03.43.03.57.18.56.37,1.16.65,1.79.85.94,1.78,1.35,3.79,1.19,5.79,0,3.16-.82,4.4-1.22,4.82-.65.32-1.26.72-1.82,1.18-.1,0-.21.01-.31.01-2.97,0-8.48-3.48-9.01-5.23h.01Z"/></g><path class="cls-16" d="m44.84,38.7s-1.98-.93-1.98-7.35c0-5.26,1.68-6.13,1.73-6.17l1.09-.85h0c1.91-1.57,3.03-3.91,3.04-6.38-.01-4.48-3.66-8.1-8.14-8.09s-8.1,3.66-8.09,8.14c.04.41.04.82.03,1.25,0,2.66-6.31,7-9.95,7-.6.03-1.21-.1-1.72-.38-1.28-.6-2.68-.96-4.09-1-4.51-.03-8.19,3.62-8.22,8.13s3.62,8.19,8.13,8.22c1.53,0,3.04-.41,4.34-1.22.66-.57,1.53-.88,2.41-.87,3.32,0,10.13,3.62,10.13,7.2,0,4.48,3.63,8.12,8.12,8.13,4.48,0,8.12-3.63,8.13-8.12h0c-.06-3.28-1.98-6.25-4.95-7.63h0Zm-6.54.18c-.72.32-1.38.76-1.97,1.28-2.84,1.01-11-3.38-11.48-6.45.04-.71.01-1.43-.07-2.13,0-2.4,6.84-7.04,10.35-7.04,1.4,0,1.04.57,3.2,1.22,1.18,1.13,1.84,3.81,1.84,7.09,0,3.93-1.19,5.48-1.85,6.06h-.01Z"/><path class="cls-3" d="m40.69,11.06c-3.69.12-6.65,3.12-6.7,6.81-.03,1.51.59,2.98,1.68,4.04-.57-.63-.88-1.47-.82-2.32.03-1.12.32-2.22.87-3.2.18-.29.49-.49.84-.49.28,0,.56.12.85.12.94,0,1.69-.78,1.69-1.73,0-.43-.18-.84-.47-1.15,1.13-.76,2.46-1.21,3.81-1.25.69-.04,1.37.16,1.93.59-1-.91-2.29-1.41-3.65-1.4h-.01Z"/><path class="cls-3" d="m42.08,39.47c-3.69.12-6.65,3.12-6.7,6.81-.03,1.51.59,2.98,1.68,4.04-.57-.63-.88-1.47-.82-2.32.03-1.12.32-2.22.87-3.2.18-.29.49-.49.84-.49.28,0,.56.12.85.12.94,0,1.69-.78,1.69-1.72,0-.43-.18-.84-.47-1.16,1.13-.76,2.46-1.21,3.81-1.25.69-.04,1.37.16,1.93.59-1-.91-2.29-1.41-3.65-1.4h-.01Z"/><path class="cls-3" d="m16.94,26.46c-3.69.12-6.65,3.12-6.7,6.81-.03,1.51.59,2.98,1.68,4.04-.57-.63-.88-1.47-.84-2.32.03-1.12.32-2.22.87-3.2.18-.29.49-.49.84-.49.28,0,.56.12.85.12.94,0,1.69-.78,1.69-1.73,0-.43-.18-.84-.47-1.15,1.13-.76,2.46-1.21,3.81-1.25.69-.04,1.37.16,1.93.59-1-.91-2.29-1.41-3.65-1.4h0Z"/></g></g></g><path d="m34.36,6.04c.6,0,1.2.04,1.81.13,6.88.99,11.64,7.38,10.63,14.25-.93,6.27-6.33,10.78-12.49,10.78-.6,0-1.2-.04-1.81-.13-6.89-.99-11.65-7.37-10.64-14.24.93-6.27,6.34-10.79,12.5-10.79m0-.75h0c-6.59,0-12.28,4.92-13.24,11.43-.52,3.52.36,7.03,2.49,9.88,2.13,2.86,5.25,4.71,8.78,5.22.64.09,1.28.14,1.92.14,6.58,0,12.27-4.91,13.24-11.42.52-3.52-.36-7.04-2.49-9.89-2.13-2.86-5.24-4.71-8.77-5.22-.64-.09-1.28-.14-1.92-.14h0Z"/><g id="_1X_copy_2"><g id="loupe_copy_3"><path class="cls-3" d="m44.99,15l-.67-.92c-.56-.81-1.31-1.56-2.26-2.26-.57-.42-3.1-1.67-3.79-1.84-2.22-.71-5.14-.46-7.18.52-.33.13-.64.28-.94.46-2.97,1.51-5.01,4.79-5.6,7.76,0,0-.66,3.02.52,5.84l1.01,2.74-.82-.2-.7-1.04c-.34-.71-.81-1.38-1.02-2.15l-.37-1.15c-.13-.38-.15-.81-.21-1.22-.15-1.59-.18-3.24.3-4.79.2-.78.5-1.58.9-2.27.19-.36.38-.73.62-1.06,1.55-2.38,3.97-4.29,6.73-5.06.39-.13.79-.23,1.19-.3,2.74-.65,5.82-.08,8.25,1.28.35.2.71.39,1.03.64,1.32.92,2.46,2.11,3.28,3.49l.56.99-.85.54Z"/><g><path class="cls-10" d="m44.52,13.07l1.05,1.93c-.26-.48-.56-.94-.88-1.38-1.78-2.38-4.45-4.08-7.62-4.53-3.16-.46-6.22.41-8.61,2.19-2.39,1.77-4.1,4.46-4.57,7.62-.38,2.58.12,5.07,1.28,7.19l-1.05-1.93c-1.16-2.11-1.66-4.62-1.28-7.19.47-3.17,2.18-5.85,4.57-7.62,2.39-1.78,5.45-2.65,8.61-2.19,3.17.46,5.84,2.15,7.61,4.53.33.44.62.9.88,1.38Z"/><path class="cls-10" d="m45.41,12.6l1.05,1.93c1.26,2.31,1.81,5.03,1.39,7.83-1.01,6.87-7.43,11.64-14.31,10.65-4.07-.59-7.41-3.07-9.24-6.42l-1.05-1.93c1.83,3.35,5.17,5.83,9.24,6.42,6.88.99,13.29-3.78,14.31-10.65.41-2.8-.13-5.52-1.39-7.83Z"/><path class="cls-4" d="m36.17,6.18c6.88.99,11.64,7.38,10.63,14.25-1.02,6.87-7.43,11.64-14.31,10.65-6.89-.99-11.65-7.37-10.64-14.24,1.02-6.88,7.43-11.65,14.31-10.66Zm5.07,21.72c2.38-1.76,4.09-4.45,4.56-7.61.47-3.17-.39-6.22-2.16-8.59-1.78-2.38-4.45-4.08-7.61-4.53-3.17-.46-6.22.41-8.61,2.19-2.39,1.77-4.1,4.46-4.57,7.62-.47,3.17.39,6.22,2.17,8.58,1.78,2.38,4.45,4.08,7.62,4.53,3.17.46,6.21-.41,8.61-2.19"/></g><g id="fixation_manche_ok"><path class="cls-3" d="m46.7,26.88c-.08-.12-.22-.12-.39.04l-2.35,2.49.27.34,2.35-2.48c.14-.14.26-.15.33-.04-.07-.12-.15-.23-.22-.35Z"/><path id="c3_angle" class="cls-20" d="m43.75,30.94l-.34-.16c-.11-.53.27-1.09.55-1.36l.27.34c-.24.24-.58.74-.48,1.18Z"/><path class="cls-21" d="m43.75,30.94l-.34-.16s.31,1.28.43,1.31c.11.03.21.07.32.1-.1-.03-.41-1.25-.41-1.25Z"/><path id="b5" class="cls-11" d="m45.44,25.83l1.21,1c-.08-.07-.2-.04-.34.1l-1.21-1c.14-.14.26-.16.34-.1Z"/><polygon id="b4" class="cls-17" points="43.96 29.41 42.75 28.41 45.1 25.92 46.31 26.93 43.96 29.41"/><path class="cls-2" d="m43.96,29.41l-1.21-1c-.27.27-.52.87-.55,1.35,0,0,.3,1.23.37,1.29l1.21,1c-.08-.07-.37-1.29-.37-1.29-.12-.54.27-1.09.55-1.36Z"/><path id="contour_face" class="cls-18" d="m46.58,27.27c.24-.24.42-.09.39.32l-.02,1.06c-.02.41-.24.94-.47,1.18l-2.06,2.25c-.24.23-.32-.01-.32-.01l-.34-1.13c-.12-.43.24-.94.48-1.18l2.35-2.48Zm.29,1.46l.02-1.06c.02-.34-.13-.46-.33-.26l-2.35,2.49c-.2.2-.47.65-.39.98l.33,1.13c-.02.34.06.16.25-.04l2.06-2.25c.2-.2.37-.63.39-.97"/><path id="face" class="cls-10" d="m46.57,27.4c.2-.2.34-.08.33.26l-.02,1.06c-.02.34-.2.77-.39.97l-2.06,2.25c-.2.19-.25.04-.25.04l-.33-1.13c-.11-.41.19-.78.39-.98l2.35-2.49Z"/></g><path class="cls-10" d="m60.13,38.14c0-.05-.21-.77-.37-.61.65.65-1.23,3.31-1.89,3.19-.37-.07-13.67-10.62-13.67-10.62l-.2.67.28,1.14s12.28,9.05,13.11,9.64c.78.55,2.33-.9,2.54-1.47.31-.85.33-1.04.21-1.93-.03-.21.06.48,0,0Z"/><path class="cls-10" d="m60.13,38.14c-.08-.46-.29-.62-.29-.62l-13.1-9.96-.26.05-2.27,2.48-.21.69.29,1.12s12.27,9.05,13.1,9.64c.78.55,2.33-.9,2.54-1.47.31-.84.33-1.05.21-1.93Z"/><path id="rel_" class="cls-1" d="m44.2,30.09l2.28-2.48.26-.05,13.06,9.94s.44.51-.47,1.88c-.91,1.38-1.46,1.34-1.46,1.34l-13.88-9.93.21-.69h0Z"/><path id="dessus_" class="cls-19" d="m59.75,37.46c.63.62-1.45,3.58-2.15,3.03-.78-.6-13.4-10.4-13.4-10.4l2.28-2.48s12.95,9.54,13.27,9.85Z"/><polygon id="rel_-2" class="cls-1" points="44.2 30.09 57.7 40.65 57.54 40.68 44 30.78 44.2 30.09 44.2 30.09"/></g></g><g id="reflet"><path class="cls-5" d="m43.15,13.04c1.97,3.59-2.53-2.42-9.82,1.54-7.74,4.2-4.59,11.04-6.56,7.45-1.97-3.59.1-8.52,4.63-11,4.53-2.48,9.79-1.58,11.76,2.01Z"/></g></svg>