<?xml version="1.0" encoding="UTF-8"?>
<svg id="Layer_1" data-name="Layer 1" xmlns="http://www.w3.org/2000/svg" xmlns:xlink="http://www.w3.org/1999/xlink" viewBox="0 0 32 32">
  <defs>
    <style>
      .White_SINGLE {
        fill: url(#linear-gradient);
        stroke: #323232;
      }

      .White_SINGLE, .cls-1 {
        stroke-linejoin: round;
      }

      .cls-1 {
        fill: url(#radial-gradient);
        stroke: #003755;
      }
    </style>
    <linearGradient id="linear-gradient" x1="13.71" y1=".94" x2="19.29" y2="10.6" gradientUnits="userSpaceOnUse">
      <stop offset="0" stop-color="#fff"/>
      <stop offset="1" stop-color="#d4d5d3"/>
    </linearGradient>
    <radialGradient id="radial-gradient" cx="13.95" cy="22.22" fx="13.95" fy="22.22" r="7.43" gradientUnits="userSpaceOnUse">
      <stop offset=".08" stop-color="#8cd7f5"/>
      <stop offset="1" stop-color="#376e8c"/>
    </radialGradient>
  </defs>
  <path class="White_SINGLE" d="M19.84,8.73s-3.34,.77-3.84,3.77c-.5-3-3.84-3.77-3.84-3.77-1.62-.75-2.66-2.37-2.66-4.16h0c0-1.14,.92-2.07,2.07-2.07h8.87c1.14,0,2.07,.92,2.07,2.07h0c0,1.79-1.04,3.41-2.66,4.16Z"/>
  <path class="cls-1" d="M16.5,15.5s-4.23,3.06-5.43,6c-2.03,5,1.02,8,4.06,8s6.1-1,5.08-5c-1.23-4.85-3.72-1-3.72-9Z"/>
</svg>