<?xml version="1.0" encoding="UTF-8"?>
<svg xmlns="http://www.w3.org/2000/svg" xmlns:xlink="http://www.w3.org/1999/xlink" viewBox="0 0 32 32">
  <defs>
    <style>
      .cls-1 {
        fill: url(#linear-gradient);
      }

      .cls-1, .cls-2 {
        stroke: #787878;
      }

      .cls-1, .cls-2, .White_OUTLINE, .cls-3, .cls-4 {
        stroke-linejoin: round;
      }

      .cls-2 {
        fill: url(#linear-gradient-2);
      }

      .White_OUTLINE, .cls-3 {
        stroke: #323232;
      }

      .cls-3 {
        fill: none;
      }

      .cls-4 {
        fill: url(#radial-gradient);
        stroke: #003755;
      }
    </style>
    <linearGradient id="linear-gradient" x1="23.5" y1="5.25" x2="23.5" y2="17.25" gradientUnits="userSpaceOnUse">
      <stop offset="0" stop-color="#f0f0f0"/>
      <stop offset=".21" stop-color="#fff"/>
      <stop offset=".41" stop-color="#f0f0f0"/>
    </linearGradient>
    <linearGradient id="linear-gradient-2" x1="17.5" y1="6.25" x2="17.5" y2="19.85" gradientUnits="userSpaceOnUse">
      <stop offset="0" stop-color="#b4b6ba"/>
      <stop offset=".14" stop-color="#d7d7d9"/>
      <stop offset=".26" stop-color="#eceded"/>
      <stop offset=".34" stop-color="#f5f5f5"/>
      <stop offset=".49" stop-color="#dcdddf"/>
      <stop offset=".67" stop-color="#c6c7ca"/>
      <stop offset=".85" stop-color="#b8babe"/>
      <stop offset="1" stop-color="#b4b6ba"/>
    </linearGradient>
    <radialGradient id="radial-gradient" cx="12.68" cy="21.7" fx="12.68" fy="21.7" r="8.42" gradientUnits="userSpaceOnUse">
      <stop offset=".08" stop-color="#8cd7f5"/>
      <stop offset="1" stop-color="#376e8c"/>
    </radialGradient>
  </defs>
  <g id="Layer_1" data-name="Layer 1">
    <path class="cls-1" d="M26.5,3.5l-9-1v15l9-3c2-1,3-2.46,3-5.5s-1.34-5.5-3-5.5Z"/>
    <ellipse class="cls-2" cx="17.5" cy="10" rx="4" ry="7.5"/>
    <path class="cls-3" d="M26.5,3.5l-8.55-.95c-.15-.03-.3-.05-.45-.05-2.21,0-4,3.36-4,7.5s1.79,7.5,4,7.5c.48,0,.93-.16,1.36-.45l7.64-2.55c2-1,3-2.46,3-5.5s-1.34-5.5-3-5.5Z"/>
  </g>
  <g id="Layer_3" data-name="Layer 3">
    <path class="cls-4" d="M20.5,14.5c-5,0-10.23,4.06-11.43,7-2.03,5,1.02,8,4.06,8s5.36-2,4.08-6,.12-4.75,2.28-7c.32-.33,1-2,1-2Z"/>
  </g>
</svg>